<?xml version="1.0" encoding="utf-8" standalone="no"?>
<!DOCTYPE svg PUBLIC "-//W3C//DTD SVG 1.1//EN"
  "http://www.w3.org/Graphics/SVG/1.1/DTD/svg11.dtd">
<!-- Created with matplotlib (http://matplotlib.org/) -->
<svg height="407.653875pt" version="1.1" viewBox="0 0 1009.804322 407.653875" width="1009.804322pt" xmlns="http://www.w3.org/2000/svg" xmlns:xlink="http://www.w3.org/1999/xlink">
 <defs>
  <style type="text/css">
*{stroke-linecap:butt;stroke-linejoin:round;}
  </style>
 </defs>
 <g id="figure_1">
  <g id="patch_1">
   <path d="M 0 407.653875 
L 1009.804322 407.653875 
L 1009.804322 0 
L 0 0 
z
" style="fill:#ffffff;"/>
  </g>
  <g id="axes_1">
   <g id="patch_2">
    <path d="M 58.525625 354.612625 
L 353.046204 354.612625 
L 353.046204 29.612625 
L 58.525625 29.612625 
z
" style="fill:#ffffff;"/>
   </g>
   <g id="matplotlib.axis_1">
    <g id="xtick_1">
     <g id="line2d_1">
      <defs>
       <path d="M 0 0 
L 0 3.5 
" id="m1612c5249c" style="stroke:#000000;stroke-width:0.8;"/>
      </defs>
      <g>
       <use style="stroke:#000000;stroke-width:0.8;" x="71.912924" xlink:href="#m1612c5249c" y="354.612625"/>
      </g>
     </g>
     <g id="text_1">
      <!-- 20 -->
      <defs>
       <path d="M 19.1875 8.296875 
L 53.609375 8.296875 
L 53.609375 0 
L 7.328125 0 
L 7.328125 8.296875 
Q 12.9375 14.109375 22.625 23.890625 
Q 32.328125 33.6875 34.8125 36.53125 
Q 39.546875 41.84375 41.421875 45.53125 
Q 43.3125 49.21875 43.3125 52.78125 
Q 43.3125 58.59375 39.234375 62.25 
Q 35.15625 65.921875 28.609375 65.921875 
Q 23.96875 65.921875 18.8125 64.3125 
Q 13.671875 62.703125 7.8125 59.421875 
L 7.8125 69.390625 
Q 13.765625 71.78125 18.9375 73 
Q 24.125 74.21875 28.421875 74.21875 
Q 39.75 74.21875 46.484375 68.546875 
Q 53.21875 62.890625 53.21875 53.421875 
Q 53.21875 48.921875 51.53125 44.890625 
Q 49.859375 40.875 45.40625 35.40625 
Q 44.1875 33.984375 37.640625 27.21875 
Q 31.109375 20.453125 19.1875 8.296875 
z
" id="DejaVuSans-32"/>
       <path d="M 31.78125 66.40625 
Q 24.171875 66.40625 20.328125 58.90625 
Q 16.5 51.421875 16.5 36.375 
Q 16.5 21.390625 20.328125 13.890625 
Q 24.171875 6.390625 31.78125 6.390625 
Q 39.453125 6.390625 43.28125 13.890625 
Q 47.125 21.390625 47.125 36.375 
Q 47.125 51.421875 43.28125 58.90625 
Q 39.453125 66.40625 31.78125 66.40625 
z
M 31.78125 74.21875 
Q 44.046875 74.21875 50.515625 64.515625 
Q 56.984375 54.828125 56.984375 36.375 
Q 56.984375 17.96875 50.515625 8.265625 
Q 44.046875 -1.421875 31.78125 -1.421875 
Q 19.53125 -1.421875 13.0625 8.265625 
Q 6.59375 17.96875 6.59375 36.375 
Q 6.59375 54.828125 13.0625 64.515625 
Q 19.53125 74.21875 31.78125 74.21875 
z
" id="DejaVuSans-30"/>
      </defs>
      <g transform="translate(60.460424 375.289812)scale(0.18 -0.18)">
       <use xlink:href="#DejaVuSans-32"/>
       <use x="63.623047" xlink:href="#DejaVuSans-30"/>
      </g>
     </g>
    </g>
    <g id="xtick_2">
     <g id="line2d_2">
      <g>
       <use style="stroke:#000000;stroke-width:0.8;" x="138.849419" xlink:href="#m1612c5249c" y="354.612625"/>
      </g>
     </g>
     <g id="text_2">
      <!-- 40 -->
      <defs>
       <path d="M 37.796875 64.3125 
L 12.890625 25.390625 
L 37.796875 25.390625 
z
M 35.203125 72.90625 
L 47.609375 72.90625 
L 47.609375 25.390625 
L 58.015625 25.390625 
L 58.015625 17.1875 
L 47.609375 17.1875 
L 47.609375 0 
L 37.796875 0 
L 37.796875 17.1875 
L 4.890625 17.1875 
L 4.890625 26.703125 
z
" id="DejaVuSans-34"/>
      </defs>
      <g transform="translate(127.396919 375.289812)scale(0.18 -0.18)">
       <use xlink:href="#DejaVuSans-34"/>
       <use x="63.623047" xlink:href="#DejaVuSans-30"/>
      </g>
     </g>
    </g>
    <g id="xtick_3">
     <g id="line2d_3">
      <g>
       <use style="stroke:#000000;stroke-width:0.8;" x="205.785915" xlink:href="#m1612c5249c" y="354.612625"/>
      </g>
     </g>
     <g id="text_3">
      <!-- 60 -->
      <defs>
       <path d="M 33.015625 40.375 
Q 26.375 40.375 22.484375 35.828125 
Q 18.609375 31.296875 18.609375 23.390625 
Q 18.609375 15.53125 22.484375 10.953125 
Q 26.375 6.390625 33.015625 6.390625 
Q 39.65625 6.390625 43.53125 10.953125 
Q 47.40625 15.53125 47.40625 23.390625 
Q 47.40625 31.296875 43.53125 35.828125 
Q 39.65625 40.375 33.015625 40.375 
z
M 52.59375 71.296875 
L 52.59375 62.3125 
Q 48.875 64.0625 45.09375 64.984375 
Q 41.3125 65.921875 37.59375 65.921875 
Q 27.828125 65.921875 22.671875 59.328125 
Q 17.53125 52.734375 16.796875 39.40625 
Q 19.671875 43.65625 24.015625 45.921875 
Q 28.375 48.1875 33.59375 48.1875 
Q 44.578125 48.1875 50.953125 41.515625 
Q 57.328125 34.859375 57.328125 23.390625 
Q 57.328125 12.15625 50.6875 5.359375 
Q 44.046875 -1.421875 33.015625 -1.421875 
Q 20.359375 -1.421875 13.671875 8.265625 
Q 6.984375 17.96875 6.984375 36.375 
Q 6.984375 53.65625 15.1875 63.9375 
Q 23.390625 74.21875 37.203125 74.21875 
Q 40.921875 74.21875 44.703125 73.484375 
Q 48.484375 72.75 52.59375 71.296875 
z
" id="DejaVuSans-36"/>
      </defs>
      <g transform="translate(194.333415 375.289812)scale(0.18 -0.18)">
       <use xlink:href="#DejaVuSans-36"/>
       <use x="63.623047" xlink:href="#DejaVuSans-30"/>
      </g>
     </g>
    </g>
    <g id="xtick_4">
     <g id="line2d_4">
      <g>
       <use style="stroke:#000000;stroke-width:0.8;" x="272.72241" xlink:href="#m1612c5249c" y="354.612625"/>
      </g>
     </g>
     <g id="text_4">
      <!-- 80 -->
      <defs>
       <path d="M 31.78125 34.625 
Q 24.75 34.625 20.71875 30.859375 
Q 16.703125 27.09375 16.703125 20.515625 
Q 16.703125 13.921875 20.71875 10.15625 
Q 24.75 6.390625 31.78125 6.390625 
Q 38.8125 6.390625 42.859375 10.171875 
Q 46.921875 13.96875 46.921875 20.515625 
Q 46.921875 27.09375 42.890625 30.859375 
Q 38.875 34.625 31.78125 34.625 
z
M 21.921875 38.8125 
Q 15.578125 40.375 12.03125 44.71875 
Q 8.5 49.078125 8.5 55.328125 
Q 8.5 64.0625 14.71875 69.140625 
Q 20.953125 74.21875 31.78125 74.21875 
Q 42.671875 74.21875 48.875 69.140625 
Q 55.078125 64.0625 55.078125 55.328125 
Q 55.078125 49.078125 51.53125 44.71875 
Q 48 40.375 41.703125 38.8125 
Q 48.828125 37.15625 52.796875 32.3125 
Q 56.78125 27.484375 56.78125 20.515625 
Q 56.78125 9.90625 50.3125 4.234375 
Q 43.84375 -1.421875 31.78125 -1.421875 
Q 19.734375 -1.421875 13.25 4.234375 
Q 6.78125 9.90625 6.78125 20.515625 
Q 6.78125 27.484375 10.78125 32.3125 
Q 14.796875 37.15625 21.921875 38.8125 
z
M 18.3125 54.390625 
Q 18.3125 48.734375 21.84375 45.5625 
Q 25.390625 42.390625 31.78125 42.390625 
Q 38.140625 42.390625 41.71875 45.5625 
Q 45.3125 48.734375 45.3125 54.390625 
Q 45.3125 60.0625 41.71875 63.234375 
Q 38.140625 66.40625 31.78125 66.40625 
Q 25.390625 66.40625 21.84375 63.234375 
Q 18.3125 60.0625 18.3125 54.390625 
z
" id="DejaVuSans-38"/>
      </defs>
      <g transform="translate(261.26991 375.289812)scale(0.18 -0.18)">
       <use xlink:href="#DejaVuSans-38"/>
       <use x="63.623047" xlink:href="#DejaVuSans-30"/>
      </g>
     </g>
    </g>
    <g id="xtick_5">
     <g id="line2d_5">
      <g>
       <use style="stroke:#000000;stroke-width:0.8;" x="339.658905" xlink:href="#m1612c5249c" y="354.612625"/>
      </g>
     </g>
     <g id="text_5">
      <!-- 100 -->
      <defs>
       <path d="M 12.40625 8.296875 
L 28.515625 8.296875 
L 28.515625 63.921875 
L 10.984375 60.40625 
L 10.984375 69.390625 
L 28.421875 72.90625 
L 38.28125 72.90625 
L 38.28125 8.296875 
L 54.390625 8.296875 
L 54.390625 0 
L 12.40625 0 
z
" id="DejaVuSans-31"/>
      </defs>
      <g transform="translate(322.480155 375.289812)scale(0.18 -0.18)">
       <use xlink:href="#DejaVuSans-31"/>
       <use x="63.623047" xlink:href="#DejaVuSans-30"/>
       <use x="127.246094" xlink:href="#DejaVuSans-30"/>
      </g>
     </g>
    </g>
    <g id="text_6">
     <!-- Cycle number -->
     <defs>
      <path d="M 64.40625 67.28125 
L 64.40625 56.890625 
Q 59.421875 61.53125 53.78125 63.8125 
Q 48.140625 66.109375 41.796875 66.109375 
Q 29.296875 66.109375 22.65625 58.46875 
Q 16.015625 50.828125 16.015625 36.375 
Q 16.015625 21.96875 22.65625 14.328125 
Q 29.296875 6.6875 41.796875 6.6875 
Q 48.140625 6.6875 53.78125 8.984375 
Q 59.421875 11.28125 64.40625 15.921875 
L 64.40625 5.609375 
Q 59.234375 2.09375 53.4375 0.328125 
Q 47.65625 -1.421875 41.21875 -1.421875 
Q 24.65625 -1.421875 15.125 8.703125 
Q 5.609375 18.84375 5.609375 36.375 
Q 5.609375 53.953125 15.125 64.078125 
Q 24.65625 74.21875 41.21875 74.21875 
Q 47.75 74.21875 53.53125 72.484375 
Q 59.328125 70.75 64.40625 67.28125 
z
" id="DejaVuSans-43"/>
      <path d="M 32.171875 -5.078125 
Q 28.375 -14.84375 24.75 -17.8125 
Q 21.140625 -20.796875 15.09375 -20.796875 
L 7.90625 -20.796875 
L 7.90625 -13.28125 
L 13.1875 -13.28125 
Q 16.890625 -13.28125 18.9375 -11.515625 
Q 21 -9.765625 23.484375 -3.21875 
L 25.09375 0.875 
L 2.984375 54.6875 
L 12.5 54.6875 
L 29.59375 11.921875 
L 46.6875 54.6875 
L 56.203125 54.6875 
z
" id="DejaVuSans-79"/>
      <path d="M 48.78125 52.59375 
L 48.78125 44.1875 
Q 44.96875 46.296875 41.140625 47.34375 
Q 37.3125 48.390625 33.40625 48.390625 
Q 24.65625 48.390625 19.8125 42.84375 
Q 14.984375 37.3125 14.984375 27.296875 
Q 14.984375 17.28125 19.8125 11.734375 
Q 24.65625 6.203125 33.40625 6.203125 
Q 37.3125 6.203125 41.140625 7.25 
Q 44.96875 8.296875 48.78125 10.40625 
L 48.78125 2.09375 
Q 45.015625 0.34375 40.984375 -0.53125 
Q 36.96875 -1.421875 32.421875 -1.421875 
Q 20.0625 -1.421875 12.78125 6.34375 
Q 5.515625 14.109375 5.515625 27.296875 
Q 5.515625 40.671875 12.859375 48.328125 
Q 20.21875 56 33.015625 56 
Q 37.15625 56 41.109375 55.140625 
Q 45.0625 54.296875 48.78125 52.59375 
z
" id="DejaVuSans-63"/>
      <path d="M 9.421875 75.984375 
L 18.40625 75.984375 
L 18.40625 0 
L 9.421875 0 
z
" id="DejaVuSans-6c"/>
      <path d="M 56.203125 29.59375 
L 56.203125 25.203125 
L 14.890625 25.203125 
Q 15.484375 15.921875 20.484375 11.0625 
Q 25.484375 6.203125 34.421875 6.203125 
Q 39.59375 6.203125 44.453125 7.46875 
Q 49.3125 8.734375 54.109375 11.28125 
L 54.109375 2.78125 
Q 49.265625 0.734375 44.1875 -0.34375 
Q 39.109375 -1.421875 33.890625 -1.421875 
Q 20.796875 -1.421875 13.15625 6.1875 
Q 5.515625 13.8125 5.515625 26.8125 
Q 5.515625 40.234375 12.765625 48.109375 
Q 20.015625 56 32.328125 56 
Q 43.359375 56 49.78125 48.890625 
Q 56.203125 41.796875 56.203125 29.59375 
z
M 47.21875 32.234375 
Q 47.125 39.59375 43.09375 43.984375 
Q 39.0625 48.390625 32.421875 48.390625 
Q 24.90625 48.390625 20.390625 44.140625 
Q 15.875 39.890625 15.1875 32.171875 
z
" id="DejaVuSans-65"/>
      <path id="DejaVuSans-20"/>
      <path d="M 54.890625 33.015625 
L 54.890625 0 
L 45.90625 0 
L 45.90625 32.71875 
Q 45.90625 40.484375 42.875 44.328125 
Q 39.84375 48.1875 33.796875 48.1875 
Q 26.515625 48.1875 22.3125 43.546875 
Q 18.109375 38.921875 18.109375 30.90625 
L 18.109375 0 
L 9.078125 0 
L 9.078125 54.6875 
L 18.109375 54.6875 
L 18.109375 46.1875 
Q 21.34375 51.125 25.703125 53.5625 
Q 30.078125 56 35.796875 56 
Q 45.21875 56 50.046875 50.171875 
Q 54.890625 44.34375 54.890625 33.015625 
z
" id="DejaVuSans-6e"/>
      <path d="M 8.5 21.578125 
L 8.5 54.6875 
L 17.484375 54.6875 
L 17.484375 21.921875 
Q 17.484375 14.15625 20.5 10.265625 
Q 23.53125 6.390625 29.59375 6.390625 
Q 36.859375 6.390625 41.078125 11.03125 
Q 45.3125 15.671875 45.3125 23.6875 
L 45.3125 54.6875 
L 54.296875 54.6875 
L 54.296875 0 
L 45.3125 0 
L 45.3125 8.40625 
Q 42.046875 3.421875 37.71875 1 
Q 33.40625 -1.421875 27.6875 -1.421875 
Q 18.265625 -1.421875 13.375 4.4375 
Q 8.5 10.296875 8.5 21.578125 
z
M 31.109375 56 
z
" id="DejaVuSans-75"/>
      <path d="M 52 44.1875 
Q 55.375 50.25 60.0625 53.125 
Q 64.75 56 71.09375 56 
Q 79.640625 56 84.28125 50.015625 
Q 88.921875 44.046875 88.921875 33.015625 
L 88.921875 0 
L 79.890625 0 
L 79.890625 32.71875 
Q 79.890625 40.578125 77.09375 44.375 
Q 74.3125 48.1875 68.609375 48.1875 
Q 61.625 48.1875 57.5625 43.546875 
Q 53.515625 38.921875 53.515625 30.90625 
L 53.515625 0 
L 44.484375 0 
L 44.484375 32.71875 
Q 44.484375 40.625 41.703125 44.40625 
Q 38.921875 48.1875 33.109375 48.1875 
Q 26.21875 48.1875 22.15625 43.53125 
Q 18.109375 38.875 18.109375 30.90625 
L 18.109375 0 
L 9.078125 0 
L 9.078125 54.6875 
L 18.109375 54.6875 
L 18.109375 46.1875 
Q 21.1875 51.21875 25.484375 53.609375 
Q 29.78125 56 35.6875 56 
Q 41.65625 56 45.828125 52.96875 
Q 50 49.953125 52 44.1875 
z
" id="DejaVuSans-6d"/>
      <path d="M 48.6875 27.296875 
Q 48.6875 37.203125 44.609375 42.84375 
Q 40.53125 48.484375 33.40625 48.484375 
Q 26.265625 48.484375 22.1875 42.84375 
Q 18.109375 37.203125 18.109375 27.296875 
Q 18.109375 17.390625 22.1875 11.75 
Q 26.265625 6.109375 33.40625 6.109375 
Q 40.53125 6.109375 44.609375 11.75 
Q 48.6875 17.390625 48.6875 27.296875 
z
M 18.109375 46.390625 
Q 20.953125 51.265625 25.265625 53.625 
Q 29.59375 56 35.59375 56 
Q 45.5625 56 51.78125 48.09375 
Q 58.015625 40.1875 58.015625 27.296875 
Q 58.015625 14.40625 51.78125 6.484375 
Q 45.5625 -1.421875 35.59375 -1.421875 
Q 29.59375 -1.421875 25.265625 0.953125 
Q 20.953125 3.328125 18.109375 8.203125 
L 18.109375 0 
L 9.078125 0 
L 9.078125 75.984375 
L 18.109375 75.984375 
z
" id="DejaVuSans-62"/>
      <path d="M 41.109375 46.296875 
Q 39.59375 47.171875 37.8125 47.578125 
Q 36.03125 48 33.890625 48 
Q 26.265625 48 22.1875 43.046875 
Q 18.109375 38.09375 18.109375 28.8125 
L 18.109375 0 
L 9.078125 0 
L 9.078125 54.6875 
L 18.109375 54.6875 
L 18.109375 46.1875 
Q 20.953125 51.171875 25.484375 53.578125 
Q 30.03125 56 36.53125 56 
Q 37.453125 56 38.578125 55.875 
Q 39.703125 55.765625 41.0625 55.515625 
z
" id="DejaVuSans-72"/>
     </defs>
     <g transform="translate(143.202165 396.710437)scale(0.18 -0.18)">
      <use xlink:href="#DejaVuSans-43"/>
      <use x="69.824219" xlink:href="#DejaVuSans-79"/>
      <use x="129.003906" xlink:href="#DejaVuSans-63"/>
      <use x="183.984375" xlink:href="#DejaVuSans-6c"/>
      <use x="211.767578" xlink:href="#DejaVuSans-65"/>
      <use x="273.291016" xlink:href="#DejaVuSans-20"/>
      <use x="305.078125" xlink:href="#DejaVuSans-6e"/>
      <use x="368.457031" xlink:href="#DejaVuSans-75"/>
      <use x="431.835938" xlink:href="#DejaVuSans-6d"/>
      <use x="529.248047" xlink:href="#DejaVuSans-62"/>
      <use x="592.724609" xlink:href="#DejaVuSans-65"/>
      <use x="654.248047" xlink:href="#DejaVuSans-72"/>
     </g>
    </g>
   </g>
   <g id="matplotlib.axis_2">
    <g id="ytick_1">
     <g id="line2d_6">
      <defs>
       <path d="M 0 0 
L -3.5 0 
" id="m43a7f037cc" style="stroke:#000000;stroke-width:0.8;"/>
      </defs>
      <g>
       <use style="stroke:#000000;stroke-width:0.8;" x="58.525625" xlink:href="#m43a7f037cc" y="354.612625"/>
      </g>
     </g>
     <g id="text_7">
      <!-- 0 -->
      <g transform="translate(40.073125 361.451219)scale(0.18 -0.18)">
       <use xlink:href="#DejaVuSans-30"/>
      </g>
     </g>
    </g>
    <g id="ytick_2">
     <g id="line2d_7">
      <g>
       <use style="stroke:#000000;stroke-width:0.8;" x="58.525625" xlink:href="#m43a7f037cc" y="309.473736"/>
      </g>
     </g>
     <g id="text_8">
      <!-- 5 -->
      <defs>
       <path d="M 10.796875 72.90625 
L 49.515625 72.90625 
L 49.515625 64.59375 
L 19.828125 64.59375 
L 19.828125 46.734375 
Q 21.96875 47.46875 24.109375 47.828125 
Q 26.265625 48.1875 28.421875 48.1875 
Q 40.625 48.1875 47.75 41.5 
Q 54.890625 34.8125 54.890625 23.390625 
Q 54.890625 11.625 47.5625 5.09375 
Q 40.234375 -1.421875 26.90625 -1.421875 
Q 22.3125 -1.421875 17.546875 -0.640625 
Q 12.796875 0.140625 7.71875 1.703125 
L 7.71875 11.625 
Q 12.109375 9.234375 16.796875 8.0625 
Q 21.484375 6.890625 26.703125 6.890625 
Q 35.15625 6.890625 40.078125 11.328125 
Q 45.015625 15.765625 45.015625 23.390625 
Q 45.015625 31 40.078125 35.4375 
Q 35.15625 39.890625 26.703125 39.890625 
Q 22.75 39.890625 18.8125 39.015625 
Q 14.890625 38.140625 10.796875 36.28125 
z
" id="DejaVuSans-35"/>
      </defs>
      <g transform="translate(40.073125 316.31233)scale(0.18 -0.18)">
       <use xlink:href="#DejaVuSans-35"/>
      </g>
     </g>
    </g>
    <g id="ytick_3">
     <g id="line2d_8">
      <g>
       <use style="stroke:#000000;stroke-width:0.8;" x="58.525625" xlink:href="#m43a7f037cc" y="264.334847"/>
      </g>
     </g>
     <g id="text_9">
      <!-- 10 -->
      <g transform="translate(28.620625 271.173441)scale(0.18 -0.18)">
       <use xlink:href="#DejaVuSans-31"/>
       <use x="63.623047" xlink:href="#DejaVuSans-30"/>
      </g>
     </g>
    </g>
    <g id="ytick_4">
     <g id="line2d_9">
      <g>
       <use style="stroke:#000000;stroke-width:0.8;" x="58.525625" xlink:href="#m43a7f037cc" y="219.195958"/>
      </g>
     </g>
     <g id="text_10">
      <!-- 15 -->
      <g transform="translate(28.620625 226.034552)scale(0.18 -0.18)">
       <use xlink:href="#DejaVuSans-31"/>
       <use x="63.623047" xlink:href="#DejaVuSans-35"/>
      </g>
     </g>
    </g>
    <g id="ytick_5">
     <g id="line2d_10">
      <g>
       <use style="stroke:#000000;stroke-width:0.8;" x="58.525625" xlink:href="#m43a7f037cc" y="174.057069"/>
      </g>
     </g>
     <g id="text_11">
      <!-- 20 -->
      <g transform="translate(28.620625 180.895663)scale(0.18 -0.18)">
       <use xlink:href="#DejaVuSans-32"/>
       <use x="63.623047" xlink:href="#DejaVuSans-30"/>
      </g>
     </g>
    </g>
    <g id="ytick_6">
     <g id="line2d_11">
      <g>
       <use style="stroke:#000000;stroke-width:0.8;" x="58.525625" xlink:href="#m43a7f037cc" y="128.918181"/>
      </g>
     </g>
     <g id="text_12">
      <!-- 25 -->
      <g transform="translate(28.620625 135.756774)scale(0.18 -0.18)">
       <use xlink:href="#DejaVuSans-32"/>
       <use x="63.623047" xlink:href="#DejaVuSans-35"/>
      </g>
     </g>
    </g>
    <g id="ytick_7">
     <g id="line2d_12">
      <g>
       <use style="stroke:#000000;stroke-width:0.8;" x="58.525625" xlink:href="#m43a7f037cc" y="83.779292"/>
      </g>
     </g>
     <g id="text_13">
      <!-- 30 -->
      <defs>
       <path d="M 40.578125 39.3125 
Q 47.65625 37.796875 51.625 33 
Q 55.609375 28.21875 55.609375 21.1875 
Q 55.609375 10.40625 48.1875 4.484375 
Q 40.765625 -1.421875 27.09375 -1.421875 
Q 22.515625 -1.421875 17.65625 -0.515625 
Q 12.796875 0.390625 7.625 2.203125 
L 7.625 11.71875 
Q 11.71875 9.328125 16.59375 8.109375 
Q 21.484375 6.890625 26.8125 6.890625 
Q 36.078125 6.890625 40.9375 10.546875 
Q 45.796875 14.203125 45.796875 21.1875 
Q 45.796875 27.640625 41.28125 31.265625 
Q 36.765625 34.90625 28.71875 34.90625 
L 20.21875 34.90625 
L 20.21875 43.015625 
L 29.109375 43.015625 
Q 36.375 43.015625 40.234375 45.921875 
Q 44.09375 48.828125 44.09375 54.296875 
Q 44.09375 59.90625 40.109375 62.90625 
Q 36.140625 65.921875 28.71875 65.921875 
Q 24.65625 65.921875 20.015625 65.03125 
Q 15.375 64.15625 9.8125 62.3125 
L 9.8125 71.09375 
Q 15.4375 72.65625 20.34375 73.4375 
Q 25.25 74.21875 29.59375 74.21875 
Q 40.828125 74.21875 47.359375 69.109375 
Q 53.90625 64.015625 53.90625 55.328125 
Q 53.90625 49.265625 50.4375 45.09375 
Q 46.96875 40.921875 40.578125 39.3125 
z
" id="DejaVuSans-33"/>
      </defs>
      <g transform="translate(28.620625 90.617885)scale(0.18 -0.18)">
       <use xlink:href="#DejaVuSans-33"/>
       <use x="63.623047" xlink:href="#DejaVuSans-30"/>
      </g>
     </g>
    </g>
    <g id="ytick_8">
     <g id="line2d_13">
      <g>
       <use style="stroke:#000000;stroke-width:0.8;" x="58.525625" xlink:href="#m43a7f037cc" y="38.640403"/>
      </g>
     </g>
     <g id="text_14">
      <!-- 35 -->
      <g transform="translate(28.620625 45.478997)scale(0.18 -0.18)">
       <use xlink:href="#DejaVuSans-33"/>
       <use x="63.623047" xlink:href="#DejaVuSans-35"/>
      </g>
     </g>
    </g>
    <g id="text_15">
     <!-- Mean percent error (%) -->
     <defs>
      <path d="M 9.8125 72.90625 
L 24.515625 72.90625 
L 43.109375 23.296875 
L 61.8125 72.90625 
L 76.515625 72.90625 
L 76.515625 0 
L 66.890625 0 
L 66.890625 64.015625 
L 48.09375 14.015625 
L 38.1875 14.015625 
L 19.390625 64.015625 
L 19.390625 0 
L 9.8125 0 
z
" id="DejaVuSans-4d"/>
      <path d="M 34.28125 27.484375 
Q 23.390625 27.484375 19.1875 25 
Q 14.984375 22.515625 14.984375 16.5 
Q 14.984375 11.71875 18.140625 8.90625 
Q 21.296875 6.109375 26.703125 6.109375 
Q 34.1875 6.109375 38.703125 11.40625 
Q 43.21875 16.703125 43.21875 25.484375 
L 43.21875 27.484375 
z
M 52.203125 31.203125 
L 52.203125 0 
L 43.21875 0 
L 43.21875 8.296875 
Q 40.140625 3.328125 35.546875 0.953125 
Q 30.953125 -1.421875 24.3125 -1.421875 
Q 15.921875 -1.421875 10.953125 3.296875 
Q 6 8.015625 6 15.921875 
Q 6 25.140625 12.171875 29.828125 
Q 18.359375 34.515625 30.609375 34.515625 
L 43.21875 34.515625 
L 43.21875 35.40625 
Q 43.21875 41.609375 39.140625 45 
Q 35.0625 48.390625 27.6875 48.390625 
Q 23 48.390625 18.546875 47.265625 
Q 14.109375 46.140625 10.015625 43.890625 
L 10.015625 52.203125 
Q 14.9375 54.109375 19.578125 55.046875 
Q 24.21875 56 28.609375 56 
Q 40.484375 56 46.34375 49.84375 
Q 52.203125 43.703125 52.203125 31.203125 
z
" id="DejaVuSans-61"/>
      <path d="M 18.109375 8.203125 
L 18.109375 -20.796875 
L 9.078125 -20.796875 
L 9.078125 54.6875 
L 18.109375 54.6875 
L 18.109375 46.390625 
Q 20.953125 51.265625 25.265625 53.625 
Q 29.59375 56 35.59375 56 
Q 45.5625 56 51.78125 48.09375 
Q 58.015625 40.1875 58.015625 27.296875 
Q 58.015625 14.40625 51.78125 6.484375 
Q 45.5625 -1.421875 35.59375 -1.421875 
Q 29.59375 -1.421875 25.265625 0.953125 
Q 20.953125 3.328125 18.109375 8.203125 
z
M 48.6875 27.296875 
Q 48.6875 37.203125 44.609375 42.84375 
Q 40.53125 48.484375 33.40625 48.484375 
Q 26.265625 48.484375 22.1875 42.84375 
Q 18.109375 37.203125 18.109375 27.296875 
Q 18.109375 17.390625 22.1875 11.75 
Q 26.265625 6.109375 33.40625 6.109375 
Q 40.53125 6.109375 44.609375 11.75 
Q 48.6875 17.390625 48.6875 27.296875 
z
" id="DejaVuSans-70"/>
      <path d="M 18.3125 70.21875 
L 18.3125 54.6875 
L 36.8125 54.6875 
L 36.8125 47.703125 
L 18.3125 47.703125 
L 18.3125 18.015625 
Q 18.3125 11.328125 20.140625 9.421875 
Q 21.96875 7.515625 27.59375 7.515625 
L 36.8125 7.515625 
L 36.8125 0 
L 27.59375 0 
Q 17.1875 0 13.234375 3.875 
Q 9.28125 7.765625 9.28125 18.015625 
L 9.28125 47.703125 
L 2.6875 47.703125 
L 2.6875 54.6875 
L 9.28125 54.6875 
L 9.28125 70.21875 
z
" id="DejaVuSans-74"/>
      <path d="M 30.609375 48.390625 
Q 23.390625 48.390625 19.1875 42.75 
Q 14.984375 37.109375 14.984375 27.296875 
Q 14.984375 17.484375 19.15625 11.84375 
Q 23.34375 6.203125 30.609375 6.203125 
Q 37.796875 6.203125 41.984375 11.859375 
Q 46.1875 17.53125 46.1875 27.296875 
Q 46.1875 37.015625 41.984375 42.703125 
Q 37.796875 48.390625 30.609375 48.390625 
z
M 30.609375 56 
Q 42.328125 56 49.015625 48.375 
Q 55.71875 40.765625 55.71875 27.296875 
Q 55.71875 13.875 49.015625 6.21875 
Q 42.328125 -1.421875 30.609375 -1.421875 
Q 18.84375 -1.421875 12.171875 6.21875 
Q 5.515625 13.875 5.515625 27.296875 
Q 5.515625 40.765625 12.171875 48.375 
Q 18.84375 56 30.609375 56 
z
" id="DejaVuSans-6f"/>
      <path d="M 31 75.875 
Q 24.46875 64.65625 21.28125 53.65625 
Q 18.109375 42.671875 18.109375 31.390625 
Q 18.109375 20.125 21.3125 9.0625 
Q 24.515625 -2 31 -13.1875 
L 23.1875 -13.1875 
Q 15.875 -1.703125 12.234375 9.375 
Q 8.59375 20.453125 8.59375 31.390625 
Q 8.59375 42.28125 12.203125 53.3125 
Q 15.828125 64.359375 23.1875 75.875 
z
" id="DejaVuSans-28"/>
      <path d="M 72.703125 32.078125 
Q 68.453125 32.078125 66.03125 28.46875 
Q 63.625 24.859375 63.625 18.40625 
Q 63.625 12.0625 66.03125 8.421875 
Q 68.453125 4.78125 72.703125 4.78125 
Q 76.859375 4.78125 79.265625 8.421875 
Q 81.6875 12.0625 81.6875 18.40625 
Q 81.6875 24.8125 79.265625 28.4375 
Q 76.859375 32.078125 72.703125 32.078125 
z
M 72.703125 38.28125 
Q 80.421875 38.28125 84.953125 32.90625 
Q 89.5 27.546875 89.5 18.40625 
Q 89.5 9.28125 84.9375 3.921875 
Q 80.375 -1.421875 72.703125 -1.421875 
Q 64.890625 -1.421875 60.34375 3.921875 
Q 55.8125 9.28125 55.8125 18.40625 
Q 55.8125 27.59375 60.375 32.9375 
Q 64.9375 38.28125 72.703125 38.28125 
z
M 22.3125 68.015625 
Q 18.109375 68.015625 15.6875 64.375 
Q 13.28125 60.75 13.28125 54.390625 
Q 13.28125 47.953125 15.671875 44.328125 
Q 18.0625 40.71875 22.3125 40.71875 
Q 26.5625 40.71875 28.96875 44.328125 
Q 31.390625 47.953125 31.390625 54.390625 
Q 31.390625 60.6875 28.953125 64.34375 
Q 26.515625 68.015625 22.3125 68.015625 
z
M 66.40625 74.21875 
L 74.21875 74.21875 
L 28.609375 -1.421875 
L 20.796875 -1.421875 
z
M 22.3125 74.21875 
Q 30.03125 74.21875 34.609375 68.875 
Q 39.203125 63.53125 39.203125 54.390625 
Q 39.203125 45.171875 34.640625 39.84375 
Q 30.078125 34.515625 22.3125 34.515625 
Q 14.546875 34.515625 10.03125 39.859375 
Q 5.515625 45.21875 5.515625 54.390625 
Q 5.515625 63.484375 10.046875 68.84375 
Q 14.59375 74.21875 22.3125 74.21875 
z
" id="DejaVuSans-25"/>
      <path d="M 8.015625 75.875 
L 15.828125 75.875 
Q 23.140625 64.359375 26.78125 53.3125 
Q 30.421875 42.28125 30.421875 31.390625 
Q 30.421875 20.453125 26.78125 9.375 
Q 23.140625 -1.703125 15.828125 -13.1875 
L 8.015625 -13.1875 
Q 14.5 -2 17.703125 9.0625 
Q 20.90625 20.125 20.90625 31.390625 
Q 20.90625 42.671875 17.703125 53.65625 
Q 14.5 64.65625 8.015625 75.875 
z
" id="DejaVuSans-29"/>
     </defs>
     <g transform="translate(20.877188 297.596844)rotate(-90)scale(0.18 -0.18)">
      <use xlink:href="#DejaVuSans-4d"/>
      <use x="86.279297" xlink:href="#DejaVuSans-65"/>
      <use x="147.802734" xlink:href="#DejaVuSans-61"/>
      <use x="209.082031" xlink:href="#DejaVuSans-6e"/>
      <use x="272.460938" xlink:href="#DejaVuSans-20"/>
      <use x="304.248047" xlink:href="#DejaVuSans-70"/>
      <use x="367.724609" xlink:href="#DejaVuSans-65"/>
      <use x="429.248047" xlink:href="#DejaVuSans-72"/>
      <use x="470.330078" xlink:href="#DejaVuSans-63"/>
      <use x="525.310547" xlink:href="#DejaVuSans-65"/>
      <use x="586.833984" xlink:href="#DejaVuSans-6e"/>
      <use x="650.212891" xlink:href="#DejaVuSans-74"/>
      <use x="689.421875" xlink:href="#DejaVuSans-20"/>
      <use x="721.208984" xlink:href="#DejaVuSans-65"/>
      <use x="782.732422" xlink:href="#DejaVuSans-72"/>
      <use x="823.830078" xlink:href="#DejaVuSans-72"/>
      <use x="864.912109" xlink:href="#DejaVuSans-6f"/>
      <use x="926.09375" xlink:href="#DejaVuSans-72"/>
      <use x="967.207031" xlink:href="#DejaVuSans-20"/>
      <use x="998.994141" xlink:href="#DejaVuSans-28"/>
      <use x="1038.007812" xlink:href="#DejaVuSans-25"/>
      <use x="1133.027344" xlink:href="#DejaVuSans-29"/>
     </g>
    </g>
   </g>
   <g id="line2d_14">
    <path clip-path="url(#p14b50c8c49)" d="M 71.912924 227.289756 
L 105.381172 238.975351 
L 138.849419 158.985984 
L 172.317667 259.831172 
L 205.785915 253.672615 
L 239.254162 242.971024 
L 272.72241 265.765269 
L 306.190658 271.728849 
L 339.658905 282.294234 
" style="fill:none;stroke:#1f77b4;stroke-linecap:square;stroke-width:1.5;"/>
    <defs>
     <path d="M 0 3 
C 0.795609 3 1.55874 2.683901 2.12132 2.12132 
C 2.683901 1.55874 3 0.795609 3 0 
C 3 -0.795609 2.683901 -1.55874 2.12132 -2.12132 
C 1.55874 -2.683901 0.795609 -3 0 -3 
C -0.795609 -3 -1.55874 -2.683901 -2.12132 -2.12132 
C -2.683901 -1.55874 -3 -0.795609 -3 0 
C -3 0.795609 -2.683901 1.55874 -2.12132 2.12132 
C -1.55874 2.683901 -0.795609 3 0 3 
z
" id="md102d3e02b" style="stroke:#1f77b4;"/>
    </defs>
    <g clip-path="url(#p14b50c8c49)">
     <use style="fill:#1f77b4;stroke:#1f77b4;" x="71.912924" xlink:href="#md102d3e02b" y="227.289756"/>
     <use style="fill:#1f77b4;stroke:#1f77b4;" x="105.381172" xlink:href="#md102d3e02b" y="238.975351"/>
     <use style="fill:#1f77b4;stroke:#1f77b4;" x="138.849419" xlink:href="#md102d3e02b" y="158.985984"/>
     <use style="fill:#1f77b4;stroke:#1f77b4;" x="172.317667" xlink:href="#md102d3e02b" y="259.831172"/>
     <use style="fill:#1f77b4;stroke:#1f77b4;" x="205.785915" xlink:href="#md102d3e02b" y="253.672615"/>
     <use style="fill:#1f77b4;stroke:#1f77b4;" x="239.254162" xlink:href="#md102d3e02b" y="242.971024"/>
     <use style="fill:#1f77b4;stroke:#1f77b4;" x="272.72241" xlink:href="#md102d3e02b" y="265.765269"/>
     <use style="fill:#1f77b4;stroke:#1f77b4;" x="306.190658" xlink:href="#md102d3e02b" y="271.728849"/>
     <use style="fill:#1f77b4;stroke:#1f77b4;" x="339.658905" xlink:href="#md102d3e02b" y="282.294234"/>
    </g>
   </g>
   <g id="line2d_15">
    <path clip-path="url(#p14b50c8c49)" d="M 71.912924 38.745737 
L 105.381172 86.899056 
L 138.849419 113.080191 
L 172.317667 203.523704 
L 205.785915 219.52447 
L 239.254162 185.024772 
L 272.72241 225.460382 
L 306.190658 231.512101 
L 339.658905 235.132384 
" style="fill:none;stroke:#ff7f0e;stroke-linecap:square;stroke-width:1.5;"/>
    <defs>
     <path d="M 0 3 
C 0.795609 3 1.55874 2.683901 2.12132 2.12132 
C 2.683901 1.55874 3 0.795609 3 0 
C 3 -0.795609 2.683901 -1.55874 2.12132 -2.12132 
C 1.55874 -2.683901 0.795609 -3 0 -3 
C -0.795609 -3 -1.55874 -2.683901 -2.12132 -2.12132 
C -2.683901 -1.55874 -3 -0.795609 -3 0 
C -3 0.795609 -2.683901 1.55874 -2.12132 2.12132 
C -1.55874 2.683901 -0.795609 3 0 3 
z
" id="m15ccc8b87b" style="stroke:#ff7f0e;"/>
    </defs>
    <g clip-path="url(#p14b50c8c49)">
     <use style="fill:#ff7f0e;stroke:#ff7f0e;" x="71.912924" xlink:href="#m15ccc8b87b" y="38.745737"/>
     <use style="fill:#ff7f0e;stroke:#ff7f0e;" x="105.381172" xlink:href="#m15ccc8b87b" y="86.899056"/>
     <use style="fill:#ff7f0e;stroke:#ff7f0e;" x="138.849419" xlink:href="#m15ccc8b87b" y="113.080191"/>
     <use style="fill:#ff7f0e;stroke:#ff7f0e;" x="172.317667" xlink:href="#m15ccc8b87b" y="203.523704"/>
     <use style="fill:#ff7f0e;stroke:#ff7f0e;" x="205.785915" xlink:href="#m15ccc8b87b" y="219.52447"/>
     <use style="fill:#ff7f0e;stroke:#ff7f0e;" x="239.254162" xlink:href="#m15ccc8b87b" y="185.024772"/>
     <use style="fill:#ff7f0e;stroke:#ff7f0e;" x="272.72241" xlink:href="#m15ccc8b87b" y="225.460382"/>
     <use style="fill:#ff7f0e;stroke:#ff7f0e;" x="306.190658" xlink:href="#m15ccc8b87b" y="231.512101"/>
     <use style="fill:#ff7f0e;stroke:#ff7f0e;" x="339.658905" xlink:href="#m15ccc8b87b" y="235.132384"/>
    </g>
   </g>
   <g id="patch_3">
    <path d="M 58.525625 354.612625 
L 58.525625 29.612625 
" style="fill:none;stroke:#000000;stroke-linecap:square;stroke-linejoin:miter;stroke-width:0.8;"/>
   </g>
   <g id="patch_4">
    <path d="M 353.046204 354.612625 
L 353.046204 29.612625 
" style="fill:none;stroke:#000000;stroke-linecap:square;stroke-linejoin:miter;stroke-width:0.8;"/>
   </g>
   <g id="patch_5">
    <path d="M 58.525625 354.612625 
L 353.046204 354.612625 
" style="fill:none;stroke:#000000;stroke-linecap:square;stroke-linejoin:miter;stroke-width:0.8;"/>
   </g>
   <g id="patch_6">
    <path d="M 58.525625 29.612625 
L 353.046204 29.612625 
" style="fill:none;stroke:#000000;stroke-linecap:square;stroke-linejoin:miter;stroke-width:0.8;"/>
   </g>
   <g id="text_16">
    <!-- a -->
    <g transform="translate(58.525625 23.612625)scale(0.216 -0.216)">
     <use xlink:href="#DejaVuSans-61"/>
    </g>
   </g>
   <g id="legend_1">
    <g id="patch_7">
     <path d="M 244.390892 96.853875 
L 340.446204 96.853875 
Q 344.046204 96.853875 344.046204 93.253875 
L 344.046204 42.212625 
Q 344.046204 38.612625 340.446204 38.612625 
L 244.390892 38.612625 
Q 240.790892 38.612625 240.790892 42.212625 
L 240.790892 93.253875 
Q 240.790892 96.853875 244.390892 96.853875 
z
" style="fill:#ffffff;opacity:0.8;stroke:#cccccc;stroke-linejoin:miter;"/>
    </g>
    <g id="line2d_16">
     <path d="M 247.990892 53.189812 
L 283.990892 53.189812 
" style="fill:none;stroke:#1f77b4;stroke-linecap:square;stroke-width:1.5;"/>
    </g>
    <g id="line2d_17">
     <g>
      <use style="fill:#1f77b4;stroke:#1f77b4;" x="265.990892" xlink:href="#md102d3e02b" y="53.189812"/>
     </g>
    </g>
    <g id="text_17">
     <!-- CV -->
     <defs>
      <path d="M 28.609375 0 
L 0.78125 72.90625 
L 11.078125 72.90625 
L 34.1875 11.53125 
L 57.328125 72.90625 
L 67.578125 72.90625 
L 39.796875 0 
z
" id="DejaVuSans-56"/>
     </defs>
     <g transform="translate(298.390892 59.489812)scale(0.18 -0.18)">
      <use xlink:href="#DejaVuSans-43"/>
      <use x="69.824219" xlink:href="#DejaVuSans-56"/>
     </g>
    </g>
    <g id="line2d_18">
     <path d="M 247.990892 79.610437 
L 283.990892 79.610437 
" style="fill:none;stroke:#ff7f0e;stroke-linecap:square;stroke-width:1.5;"/>
    </g>
    <g id="line2d_19">
     <g>
      <use style="fill:#ff7f0e;stroke:#ff7f0e;" x="265.990892" xlink:href="#m15ccc8b87b" y="79.610437"/>
     </g>
    </g>
    <g id="text_18">
     <!-- Test -->
     <defs>
      <path d="M -0.296875 72.90625 
L 61.375 72.90625 
L 61.375 64.59375 
L 35.5 64.59375 
L 35.5 0 
L 25.59375 0 
L 25.59375 64.59375 
L -0.296875 64.59375 
z
" id="DejaVuSans-54"/>
      <path d="M 44.28125 53.078125 
L 44.28125 44.578125 
Q 40.484375 46.53125 36.375 47.5 
Q 32.28125 48.484375 27.875 48.484375 
Q 21.1875 48.484375 17.84375 46.4375 
Q 14.5 44.390625 14.5 40.28125 
Q 14.5 37.15625 16.890625 35.375 
Q 19.28125 33.59375 26.515625 31.984375 
L 29.59375 31.296875 
Q 39.15625 29.25 43.1875 25.515625 
Q 47.21875 21.78125 47.21875 15.09375 
Q 47.21875 7.46875 41.1875 3.015625 
Q 35.15625 -1.421875 24.609375 -1.421875 
Q 20.21875 -1.421875 15.453125 -0.5625 
Q 10.6875 0.296875 5.421875 2 
L 5.421875 11.28125 
Q 10.40625 8.6875 15.234375 7.390625 
Q 20.0625 6.109375 24.8125 6.109375 
Q 31.15625 6.109375 34.5625 8.28125 
Q 37.984375 10.453125 37.984375 14.40625 
Q 37.984375 18.0625 35.515625 20.015625 
Q 33.0625 21.96875 24.703125 23.78125 
L 21.578125 24.515625 
Q 13.234375 26.265625 9.515625 29.90625 
Q 5.8125 33.546875 5.8125 39.890625 
Q 5.8125 47.609375 11.28125 51.796875 
Q 16.75 56 26.8125 56 
Q 31.78125 56 36.171875 55.265625 
Q 40.578125 54.546875 44.28125 53.078125 
z
" id="DejaVuSans-73"/>
     </defs>
     <g transform="translate(298.390892 85.910437)scale(0.18 -0.18)">
      <use xlink:href="#DejaVuSans-54"/>
      <use x="60.818359" xlink:href="#DejaVuSans-65"/>
      <use x="122.341797" xlink:href="#DejaVuSans-73"/>
      <use x="174.441406" xlink:href="#DejaVuSans-74"/>
     </g>
    </g>
   </g>
  </g>
  <g id="axes_2">
   <g id="patch_8">
    <path d="M 381.408958 354.612625 
L 675.929538 354.612625 
L 675.929538 29.612625 
L 381.408958 29.612625 
z
" style="fill:#ffffff;"/>
   </g>
   <g id="matplotlib.axis_3">
    <g id="xtick_6">
     <g id="line2d_20">
      <g>
       <use style="stroke:#000000;stroke-width:0.8;" x="394.796257" xlink:href="#m1612c5249c" y="354.612625"/>
      </g>
     </g>
     <g id="text_19">
      <!-- 20 -->
      <g transform="translate(383.343757 375.289812)scale(0.18 -0.18)">
       <use xlink:href="#DejaVuSans-32"/>
       <use x="63.623047" xlink:href="#DejaVuSans-30"/>
      </g>
     </g>
    </g>
    <g id="xtick_7">
     <g id="line2d_21">
      <g>
       <use style="stroke:#000000;stroke-width:0.8;" x="461.732753" xlink:href="#m1612c5249c" y="354.612625"/>
      </g>
     </g>
     <g id="text_20">
      <!-- 40 -->
      <g transform="translate(450.280253 375.289812)scale(0.18 -0.18)">
       <use xlink:href="#DejaVuSans-34"/>
       <use x="63.623047" xlink:href="#DejaVuSans-30"/>
      </g>
     </g>
    </g>
    <g id="xtick_8">
     <g id="line2d_22">
      <g>
       <use style="stroke:#000000;stroke-width:0.8;" x="528.669248" xlink:href="#m1612c5249c" y="354.612625"/>
      </g>
     </g>
     <g id="text_21">
      <!-- 60 -->
      <g transform="translate(517.216748 375.289812)scale(0.18 -0.18)">
       <use xlink:href="#DejaVuSans-36"/>
       <use x="63.623047" xlink:href="#DejaVuSans-30"/>
      </g>
     </g>
    </g>
    <g id="xtick_9">
     <g id="line2d_23">
      <g>
       <use style="stroke:#000000;stroke-width:0.8;" x="595.605743" xlink:href="#m1612c5249c" y="354.612625"/>
      </g>
     </g>
     <g id="text_22">
      <!-- 80 -->
      <g transform="translate(584.153243 375.289812)scale(0.18 -0.18)">
       <use xlink:href="#DejaVuSans-38"/>
       <use x="63.623047" xlink:href="#DejaVuSans-30"/>
      </g>
     </g>
    </g>
    <g id="xtick_10">
     <g id="line2d_24">
      <g>
       <use style="stroke:#000000;stroke-width:0.8;" x="662.542239" xlink:href="#m1612c5249c" y="354.612625"/>
      </g>
     </g>
     <g id="text_23">
      <!-- 100 -->
      <g transform="translate(645.363489 375.289812)scale(0.18 -0.18)">
       <use xlink:href="#DejaVuSans-31"/>
       <use x="63.623047" xlink:href="#DejaVuSans-30"/>
       <use x="127.246094" xlink:href="#DejaVuSans-30"/>
      </g>
     </g>
    </g>
    <g id="text_24">
     <!-- Cycle number -->
     <g transform="translate(466.085498 396.710437)scale(0.18 -0.18)">
      <use xlink:href="#DejaVuSans-43"/>
      <use x="69.824219" xlink:href="#DejaVuSans-79"/>
      <use x="129.003906" xlink:href="#DejaVuSans-63"/>
      <use x="183.984375" xlink:href="#DejaVuSans-6c"/>
      <use x="211.767578" xlink:href="#DejaVuSans-65"/>
      <use x="273.291016" xlink:href="#DejaVuSans-20"/>
      <use x="305.078125" xlink:href="#DejaVuSans-6e"/>
      <use x="368.457031" xlink:href="#DejaVuSans-75"/>
      <use x="431.835938" xlink:href="#DejaVuSans-6d"/>
      <use x="529.248047" xlink:href="#DejaVuSans-62"/>
      <use x="592.724609" xlink:href="#DejaVuSans-65"/>
      <use x="654.248047" xlink:href="#DejaVuSans-72"/>
     </g>
    </g>
   </g>
   <g id="matplotlib.axis_4">
    <g id="ytick_9">
     <g id="line2d_25">
      <g>
       <use style="stroke:#000000;stroke-width:0.8;" x="381.408958" xlink:href="#m43a7f037cc" y="354.612625"/>
      </g>
     </g>
    </g>
    <g id="ytick_10">
     <g id="line2d_26">
      <g>
       <use style="stroke:#000000;stroke-width:0.8;" x="381.408958" xlink:href="#m43a7f037cc" y="309.473736"/>
      </g>
     </g>
    </g>
    <g id="ytick_11">
     <g id="line2d_27">
      <g>
       <use style="stroke:#000000;stroke-width:0.8;" x="381.408958" xlink:href="#m43a7f037cc" y="264.334847"/>
      </g>
     </g>
    </g>
    <g id="ytick_12">
     <g id="line2d_28">
      <g>
       <use style="stroke:#000000;stroke-width:0.8;" x="381.408958" xlink:href="#m43a7f037cc" y="219.195958"/>
      </g>
     </g>
    </g>
    <g id="ytick_13">
     <g id="line2d_29">
      <g>
       <use style="stroke:#000000;stroke-width:0.8;" x="381.408958" xlink:href="#m43a7f037cc" y="174.057069"/>
      </g>
     </g>
    </g>
    <g id="ytick_14">
     <g id="line2d_30">
      <g>
       <use style="stroke:#000000;stroke-width:0.8;" x="381.408958" xlink:href="#m43a7f037cc" y="128.918181"/>
      </g>
     </g>
    </g>
    <g id="ytick_15">
     <g id="line2d_31">
      <g>
       <use style="stroke:#000000;stroke-width:0.8;" x="381.408958" xlink:href="#m43a7f037cc" y="83.779292"/>
      </g>
     </g>
    </g>
    <g id="ytick_16">
     <g id="line2d_32">
      <g>
       <use style="stroke:#000000;stroke-width:0.8;" x="381.408958" xlink:href="#m43a7f037cc" y="38.640403"/>
      </g>
     </g>
    </g>
   </g>
   <g id="line2d_33">
    <path clip-path="url(#p912b4fdc92)" d="M 394.796257 293.977019 
L 428.264505 299.700346 
L 461.732753 307.07354 
L 495.201 306.318957 
L 528.669248 310.741931 
L 562.137496 309.107715 
L 595.605743 310.752439 
L 629.073991 312.682823 
L 662.542239 315.784949 
" style="fill:none;stroke:#2ca02c;stroke-linecap:square;stroke-width:1.5;"/>
    <defs>
     <path d="M 0 3 
C 0.795609 3 1.55874 2.683901 2.12132 2.12132 
C 2.683901 1.55874 3 0.795609 3 0 
C 3 -0.795609 2.683901 -1.55874 2.12132 -2.12132 
C 1.55874 -2.683901 0.795609 -3 0 -3 
C -0.795609 -3 -1.55874 -2.683901 -2.12132 -2.12132 
C -2.683901 -1.55874 -3 -0.795609 -3 0 
C -3 0.795609 -2.683901 1.55874 -2.12132 2.12132 
C -1.55874 2.683901 -0.795609 3 0 3 
z
" id="mc57ad9ed33" style="stroke:#2ca02c;"/>
    </defs>
    <g clip-path="url(#p912b4fdc92)">
     <use style="fill:#2ca02c;stroke:#2ca02c;" x="394.796257" xlink:href="#mc57ad9ed33" y="293.977019"/>
     <use style="fill:#2ca02c;stroke:#2ca02c;" x="428.264505" xlink:href="#mc57ad9ed33" y="299.700346"/>
     <use style="fill:#2ca02c;stroke:#2ca02c;" x="461.732753" xlink:href="#mc57ad9ed33" y="307.07354"/>
     <use style="fill:#2ca02c;stroke:#2ca02c;" x="495.201" xlink:href="#mc57ad9ed33" y="306.318957"/>
     <use style="fill:#2ca02c;stroke:#2ca02c;" x="528.669248" xlink:href="#mc57ad9ed33" y="310.741931"/>
     <use style="fill:#2ca02c;stroke:#2ca02c;" x="562.137496" xlink:href="#mc57ad9ed33" y="309.107715"/>
     <use style="fill:#2ca02c;stroke:#2ca02c;" x="595.605743" xlink:href="#mc57ad9ed33" y="310.752439"/>
     <use style="fill:#2ca02c;stroke:#2ca02c;" x="629.073991" xlink:href="#mc57ad9ed33" y="312.682823"/>
     <use style="fill:#2ca02c;stroke:#2ca02c;" x="662.542239" xlink:href="#mc57ad9ed33" y="315.784949"/>
    </g>
   </g>
   <g id="line2d_34">
    <path clip-path="url(#p912b4fdc92)" d="M 394.796257 324.7851 
L 428.264505 325.249147 
L 461.732753 326.60842 
L 495.201 328.604893 
L 528.669248 330.97912 
L 562.137496 329.480472 
L 595.605743 330.164452 
L 629.073991 329.834487 
L 662.542239 332.028723 
" style="fill:none;stroke:#1f77b4;stroke-linecap:square;stroke-width:1.5;"/>
    <g clip-path="url(#p912b4fdc92)">
     <use style="fill:#1f77b4;stroke:#1f77b4;" x="394.796257" xlink:href="#md102d3e02b" y="324.7851"/>
     <use style="fill:#1f77b4;stroke:#1f77b4;" x="428.264505" xlink:href="#md102d3e02b" y="325.249147"/>
     <use style="fill:#1f77b4;stroke:#1f77b4;" x="461.732753" xlink:href="#md102d3e02b" y="326.60842"/>
     <use style="fill:#1f77b4;stroke:#1f77b4;" x="495.201" xlink:href="#md102d3e02b" y="328.604893"/>
     <use style="fill:#1f77b4;stroke:#1f77b4;" x="528.669248" xlink:href="#md102d3e02b" y="330.97912"/>
     <use style="fill:#1f77b4;stroke:#1f77b4;" x="562.137496" xlink:href="#md102d3e02b" y="329.480472"/>
     <use style="fill:#1f77b4;stroke:#1f77b4;" x="595.605743" xlink:href="#md102d3e02b" y="330.164452"/>
     <use style="fill:#1f77b4;stroke:#1f77b4;" x="629.073991" xlink:href="#md102d3e02b" y="329.834487"/>
     <use style="fill:#1f77b4;stroke:#1f77b4;" x="662.542239" xlink:href="#md102d3e02b" y="332.028723"/>
    </g>
   </g>
   <g id="line2d_35">
    <path clip-path="url(#p912b4fdc92)" d="M 394.796257 45.019602 
L 428.264505 169.34124 
L 461.732753 235.427469 
L 495.201 234.388442 
L 528.669248 240.889923 
L 562.137496 238.252516 
L 595.605743 238.778335 
L 629.073991 247.510957 
L 662.542239 243.338501 
" style="fill:none;stroke:#ff7f0e;stroke-linecap:square;stroke-width:1.5;"/>
    <g clip-path="url(#p912b4fdc92)">
     <use style="fill:#ff7f0e;stroke:#ff7f0e;" x="394.796257" xlink:href="#m15ccc8b87b" y="45.019602"/>
     <use style="fill:#ff7f0e;stroke:#ff7f0e;" x="428.264505" xlink:href="#m15ccc8b87b" y="169.34124"/>
     <use style="fill:#ff7f0e;stroke:#ff7f0e;" x="461.732753" xlink:href="#m15ccc8b87b" y="235.427469"/>
     <use style="fill:#ff7f0e;stroke:#ff7f0e;" x="495.201" xlink:href="#m15ccc8b87b" y="234.388442"/>
     <use style="fill:#ff7f0e;stroke:#ff7f0e;" x="528.669248" xlink:href="#m15ccc8b87b" y="240.889923"/>
     <use style="fill:#ff7f0e;stroke:#ff7f0e;" x="562.137496" xlink:href="#m15ccc8b87b" y="238.252516"/>
     <use style="fill:#ff7f0e;stroke:#ff7f0e;" x="595.605743" xlink:href="#m15ccc8b87b" y="238.778335"/>
     <use style="fill:#ff7f0e;stroke:#ff7f0e;" x="629.073991" xlink:href="#m15ccc8b87b" y="247.510957"/>
     <use style="fill:#ff7f0e;stroke:#ff7f0e;" x="662.542239" xlink:href="#m15ccc8b87b" y="243.338501"/>
    </g>
   </g>
   <g id="patch_9">
    <path d="M 381.408958 354.612625 
L 381.408958 29.612625 
" style="fill:none;stroke:#000000;stroke-linecap:square;stroke-linejoin:miter;stroke-width:0.8;"/>
   </g>
   <g id="patch_10">
    <path d="M 675.929538 354.612625 
L 675.929538 29.612625 
" style="fill:none;stroke:#000000;stroke-linecap:square;stroke-linejoin:miter;stroke-width:0.8;"/>
   </g>
   <g id="patch_11">
    <path d="M 381.408958 354.612625 
L 675.929538 354.612625 
" style="fill:none;stroke:#000000;stroke-linecap:square;stroke-linejoin:miter;stroke-width:0.8;"/>
   </g>
   <g id="patch_12">
    <path d="M 381.408958 29.612625 
L 675.929538 29.612625 
" style="fill:none;stroke:#000000;stroke-linecap:square;stroke-linejoin:miter;stroke-width:0.8;"/>
   </g>
   <g id="text_25">
    <!-- b -->
    <g transform="translate(381.408958 23.612625)scale(0.216 -0.216)">
     <use xlink:href="#DejaVuSans-62"/>
    </g>
   </g>
   <g id="legend_2">
    <g id="patch_13">
     <path d="M 559.936413 123.2745 
L 663.329538 123.2745 
Q 666.929538 123.2745 666.929538 119.6745 
L 666.929538 42.212625 
Q 666.929538 38.612625 663.329538 38.612625 
L 559.936413 38.612625 
Q 556.336413 38.612625 556.336413 42.212625 
L 556.336413 119.6745 
Q 556.336413 123.2745 559.936413 123.2745 
z
" style="fill:#ffffff;opacity:0.8;stroke:#cccccc;stroke-linejoin:miter;"/>
    </g>
    <g id="line2d_36">
     <path d="M 563.536413 53.189812 
L 599.536413 53.189812 
" style="fill:none;stroke:#2ca02c;stroke-linecap:square;stroke-width:1.5;"/>
    </g>
    <g id="line2d_37">
     <g>
      <use style="fill:#2ca02c;stroke:#2ca02c;" x="581.536413" xlink:href="#mc57ad9ed33" y="53.189812"/>
     </g>
    </g>
    <g id="text_26">
     <!-- Train -->
     <defs>
      <path d="M 9.421875 54.6875 
L 18.40625 54.6875 
L 18.40625 0 
L 9.421875 0 
z
M 9.421875 75.984375 
L 18.40625 75.984375 
L 18.40625 64.59375 
L 9.421875 64.59375 
z
" id="DejaVuSans-69"/>
     </defs>
     <g transform="translate(613.936413 59.489812)scale(0.18 -0.18)">
      <use xlink:href="#DejaVuSans-54"/>
      <use x="60.865234" xlink:href="#DejaVuSans-72"/>
      <use x="101.978516" xlink:href="#DejaVuSans-61"/>
      <use x="163.257812" xlink:href="#DejaVuSans-69"/>
      <use x="191.041016" xlink:href="#DejaVuSans-6e"/>
     </g>
    </g>
    <g id="line2d_38">
     <path d="M 563.536413 79.610437 
L 599.536413 79.610437 
" style="fill:none;stroke:#1f77b4;stroke-linecap:square;stroke-width:1.5;"/>
    </g>
    <g id="line2d_39">
     <g>
      <use style="fill:#1f77b4;stroke:#1f77b4;" x="581.536413" xlink:href="#md102d3e02b" y="79.610437"/>
     </g>
    </g>
    <g id="text_27">
     <!-- CV -->
     <g transform="translate(613.936413 85.910437)scale(0.18 -0.18)">
      <use xlink:href="#DejaVuSans-43"/>
      <use x="69.824219" xlink:href="#DejaVuSans-56"/>
     </g>
    </g>
    <g id="line2d_40">
     <path d="M 563.536413 106.031062 
L 599.536413 106.031062 
" style="fill:none;stroke:#ff7f0e;stroke-linecap:square;stroke-width:1.5;"/>
    </g>
    <g id="line2d_41">
     <g>
      <use style="fill:#ff7f0e;stroke:#ff7f0e;" x="581.536413" xlink:href="#m15ccc8b87b" y="106.031062"/>
     </g>
    </g>
    <g id="text_28">
     <!-- Test -->
     <g transform="translate(613.936413 112.331062)scale(0.18 -0.18)">
      <use xlink:href="#DejaVuSans-54"/>
      <use x="60.818359" xlink:href="#DejaVuSans-65"/>
      <use x="122.341797" xlink:href="#DejaVuSans-73"/>
      <use x="174.441406" xlink:href="#DejaVuSans-74"/>
     </g>
    </g>
   </g>
  </g>
  <g id="axes_3">
   <g id="patch_14">
    <path d="M 704.292292 354.612625 
L 998.812871 354.612625 
L 998.812871 29.612625 
L 704.292292 29.612625 
z
" style="fill:#ffffff;"/>
   </g>
   <g id="matplotlib.axis_5">
    <g id="xtick_11">
     <g id="line2d_42">
      <g>
       <use style="stroke:#000000;stroke-width:0.8;" x="717.679591" xlink:href="#m1612c5249c" y="354.612625"/>
      </g>
     </g>
     <g id="text_29">
      <!-- 20 -->
      <g transform="translate(706.227091 375.289812)scale(0.18 -0.18)">
       <use xlink:href="#DejaVuSans-32"/>
       <use x="63.623047" xlink:href="#DejaVuSans-30"/>
      </g>
     </g>
    </g>
    <g id="xtick_12">
     <g id="line2d_43">
      <g>
       <use style="stroke:#000000;stroke-width:0.8;" x="784.616086" xlink:href="#m1612c5249c" y="354.612625"/>
      </g>
     </g>
     <g id="text_30">
      <!-- 40 -->
      <g transform="translate(773.163586 375.289812)scale(0.18 -0.18)">
       <use xlink:href="#DejaVuSans-34"/>
       <use x="63.623047" xlink:href="#DejaVuSans-30"/>
      </g>
     </g>
    </g>
    <g id="xtick_13">
     <g id="line2d_44">
      <g>
       <use style="stroke:#000000;stroke-width:0.8;" x="851.552581" xlink:href="#m1612c5249c" y="354.612625"/>
      </g>
     </g>
     <g id="text_31">
      <!-- 60 -->
      <g transform="translate(840.100081 375.289812)scale(0.18 -0.18)">
       <use xlink:href="#DejaVuSans-36"/>
       <use x="63.623047" xlink:href="#DejaVuSans-30"/>
      </g>
     </g>
    </g>
    <g id="xtick_14">
     <g id="line2d_45">
      <g>
       <use style="stroke:#000000;stroke-width:0.8;" x="918.489077" xlink:href="#m1612c5249c" y="354.612625"/>
      </g>
     </g>
     <g id="text_32">
      <!-- 80 -->
      <g transform="translate(907.036577 375.289812)scale(0.18 -0.18)">
       <use xlink:href="#DejaVuSans-38"/>
       <use x="63.623047" xlink:href="#DejaVuSans-30"/>
      </g>
     </g>
    </g>
    <g id="xtick_15">
     <g id="line2d_46">
      <g>
       <use style="stroke:#000000;stroke-width:0.8;" x="985.425572" xlink:href="#m1612c5249c" y="354.612625"/>
      </g>
     </g>
     <g id="text_33">
      <!-- 100 -->
      <g transform="translate(968.246822 375.289812)scale(0.18 -0.18)">
       <use xlink:href="#DejaVuSans-31"/>
       <use x="63.623047" xlink:href="#DejaVuSans-30"/>
       <use x="127.246094" xlink:href="#DejaVuSans-30"/>
      </g>
     </g>
    </g>
    <g id="text_34">
     <!-- Cycle number -->
     <g transform="translate(788.968831 396.710437)scale(0.18 -0.18)">
      <use xlink:href="#DejaVuSans-43"/>
      <use x="69.824219" xlink:href="#DejaVuSans-79"/>
      <use x="129.003906" xlink:href="#DejaVuSans-63"/>
      <use x="183.984375" xlink:href="#DejaVuSans-6c"/>
      <use x="211.767578" xlink:href="#DejaVuSans-65"/>
      <use x="273.291016" xlink:href="#DejaVuSans-20"/>
      <use x="305.078125" xlink:href="#DejaVuSans-6e"/>
      <use x="368.457031" xlink:href="#DejaVuSans-75"/>
      <use x="431.835938" xlink:href="#DejaVuSans-6d"/>
      <use x="529.248047" xlink:href="#DejaVuSans-62"/>
      <use x="592.724609" xlink:href="#DejaVuSans-65"/>
      <use x="654.248047" xlink:href="#DejaVuSans-72"/>
     </g>
    </g>
   </g>
   <g id="matplotlib.axis_6">
    <g id="ytick_17">
     <g id="line2d_47">
      <g>
       <use style="stroke:#000000;stroke-width:0.8;" x="704.292292" xlink:href="#m43a7f037cc" y="354.612625"/>
      </g>
     </g>
    </g>
    <g id="ytick_18">
     <g id="line2d_48">
      <g>
       <use style="stroke:#000000;stroke-width:0.8;" x="704.292292" xlink:href="#m43a7f037cc" y="309.473736"/>
      </g>
     </g>
    </g>
    <g id="ytick_19">
     <g id="line2d_49">
      <g>
       <use style="stroke:#000000;stroke-width:0.8;" x="704.292292" xlink:href="#m43a7f037cc" y="264.334847"/>
      </g>
     </g>
    </g>
    <g id="ytick_20">
     <g id="line2d_50">
      <g>
       <use style="stroke:#000000;stroke-width:0.8;" x="704.292292" xlink:href="#m43a7f037cc" y="219.195958"/>
      </g>
     </g>
    </g>
    <g id="ytick_21">
     <g id="line2d_51">
      <g>
       <use style="stroke:#000000;stroke-width:0.8;" x="704.292292" xlink:href="#m43a7f037cc" y="174.057069"/>
      </g>
     </g>
    </g>
    <g id="ytick_22">
     <g id="line2d_52">
      <g>
       <use style="stroke:#000000;stroke-width:0.8;" x="704.292292" xlink:href="#m43a7f037cc" y="128.918181"/>
      </g>
     </g>
    </g>
    <g id="ytick_23">
     <g id="line2d_53">
      <g>
       <use style="stroke:#000000;stroke-width:0.8;" x="704.292292" xlink:href="#m43a7f037cc" y="83.779292"/>
      </g>
     </g>
    </g>
    <g id="ytick_24">
     <g id="line2d_54">
      <g>
       <use style="stroke:#000000;stroke-width:0.8;" x="704.292292" xlink:href="#m43a7f037cc" y="38.640403"/>
      </g>
     </g>
    </g>
   </g>
   <g id="line2d_55">
    <path clip-path="url(#p2acd5d4211)" d="M 717.679591 260.279521 
L 751.147838 256.391698 
L 784.616086 269.145254 
L 818.084334 272.169413 
L 851.552581 274.475243 
L 885.020829 275.177772 
L 918.489077 279.947596 
L 951.957324 273.910458 
L 985.425572 278.363822 
" style="fill:none;stroke:#2ca02c;stroke-linecap:square;stroke-width:1.5;"/>
    <g clip-path="url(#p2acd5d4211)">
     <use style="fill:#2ca02c;stroke:#2ca02c;" x="717.679591" xlink:href="#mc57ad9ed33" y="260.279521"/>
     <use style="fill:#2ca02c;stroke:#2ca02c;" x="751.147838" xlink:href="#mc57ad9ed33" y="256.391698"/>
     <use style="fill:#2ca02c;stroke:#2ca02c;" x="784.616086" xlink:href="#mc57ad9ed33" y="269.145254"/>
     <use style="fill:#2ca02c;stroke:#2ca02c;" x="818.084334" xlink:href="#mc57ad9ed33" y="272.169413"/>
     <use style="fill:#2ca02c;stroke:#2ca02c;" x="851.552581" xlink:href="#mc57ad9ed33" y="274.475243"/>
     <use style="fill:#2ca02c;stroke:#2ca02c;" x="885.020829" xlink:href="#mc57ad9ed33" y="275.177772"/>
     <use style="fill:#2ca02c;stroke:#2ca02c;" x="918.489077" xlink:href="#mc57ad9ed33" y="279.947596"/>
     <use style="fill:#2ca02c;stroke:#2ca02c;" x="951.957324" xlink:href="#mc57ad9ed33" y="273.910458"/>
     <use style="fill:#2ca02c;stroke:#2ca02c;" x="985.425572" xlink:href="#mc57ad9ed33" y="278.363822"/>
    </g>
   </g>
   <g id="line2d_56">
    <path clip-path="url(#p2acd5d4211)" d="M 717.679591 325.420841 
L 751.147838 328.718877 
L 784.616086 328.339355 
L 818.084334 328.015323 
L 851.552581 330.318381 
L 885.020829 329.155217 
L 918.489077 331.473654 
L 951.957324 329.996596 
L 985.425572 332.497312 
" style="fill:none;stroke:#1f77b4;stroke-linecap:square;stroke-width:1.5;"/>
    <g clip-path="url(#p2acd5d4211)">
     <use style="fill:#1f77b4;stroke:#1f77b4;" x="717.679591" xlink:href="#md102d3e02b" y="325.420841"/>
     <use style="fill:#1f77b4;stroke:#1f77b4;" x="751.147838" xlink:href="#md102d3e02b" y="328.718877"/>
     <use style="fill:#1f77b4;stroke:#1f77b4;" x="784.616086" xlink:href="#md102d3e02b" y="328.339355"/>
     <use style="fill:#1f77b4;stroke:#1f77b4;" x="818.084334" xlink:href="#md102d3e02b" y="328.015323"/>
     <use style="fill:#1f77b4;stroke:#1f77b4;" x="851.552581" xlink:href="#md102d3e02b" y="330.318381"/>
     <use style="fill:#1f77b4;stroke:#1f77b4;" x="885.020829" xlink:href="#md102d3e02b" y="329.155217"/>
     <use style="fill:#1f77b4;stroke:#1f77b4;" x="918.489077" xlink:href="#md102d3e02b" y="331.473654"/>
     <use style="fill:#1f77b4;stroke:#1f77b4;" x="951.957324" xlink:href="#md102d3e02b" y="329.996596"/>
     <use style="fill:#1f77b4;stroke:#1f77b4;" x="985.425572" xlink:href="#md102d3e02b" y="332.497312"/>
    </g>
   </g>
   <g id="line2d_57">
    <path clip-path="url(#p2acd5d4211)" d="M 717.679591 46.31957 
L 751.147838 96.39512 
L 784.616086 139.109462 
L 818.084334 193.521811 
L 851.552581 227.896453 
L 885.020829 217.967873 
L 918.489077 217.300221 
L 951.957324 240.130902 
L 985.425572 242.360523 
" style="fill:none;stroke:#ff7f0e;stroke-linecap:square;stroke-width:1.5;"/>
    <g clip-path="url(#p2acd5d4211)">
     <use style="fill:#ff7f0e;stroke:#ff7f0e;" x="717.679591" xlink:href="#m15ccc8b87b" y="46.31957"/>
     <use style="fill:#ff7f0e;stroke:#ff7f0e;" x="751.147838" xlink:href="#m15ccc8b87b" y="96.39512"/>
     <use style="fill:#ff7f0e;stroke:#ff7f0e;" x="784.616086" xlink:href="#m15ccc8b87b" y="139.109462"/>
     <use style="fill:#ff7f0e;stroke:#ff7f0e;" x="818.084334" xlink:href="#m15ccc8b87b" y="193.521811"/>
     <use style="fill:#ff7f0e;stroke:#ff7f0e;" x="851.552581" xlink:href="#m15ccc8b87b" y="227.896453"/>
     <use style="fill:#ff7f0e;stroke:#ff7f0e;" x="885.020829" xlink:href="#m15ccc8b87b" y="217.967873"/>
     <use style="fill:#ff7f0e;stroke:#ff7f0e;" x="918.489077" xlink:href="#m15ccc8b87b" y="217.300221"/>
     <use style="fill:#ff7f0e;stroke:#ff7f0e;" x="951.957324" xlink:href="#m15ccc8b87b" y="240.130902"/>
     <use style="fill:#ff7f0e;stroke:#ff7f0e;" x="985.425572" xlink:href="#m15ccc8b87b" y="242.360523"/>
    </g>
   </g>
   <g id="patch_15">
    <path d="M 704.292292 354.612625 
L 704.292292 29.612625 
" style="fill:none;stroke:#000000;stroke-linecap:square;stroke-linejoin:miter;stroke-width:0.8;"/>
   </g>
   <g id="patch_16">
    <path d="M 998.812871 354.612625 
L 998.812871 29.612625 
" style="fill:none;stroke:#000000;stroke-linecap:square;stroke-linejoin:miter;stroke-width:0.8;"/>
   </g>
   <g id="patch_17">
    <path d="M 704.292292 354.612625 
L 998.812871 354.612625 
" style="fill:none;stroke:#000000;stroke-linecap:square;stroke-linejoin:miter;stroke-width:0.8;"/>
   </g>
   <g id="patch_18">
    <path d="M 704.292292 29.612625 
L 998.812871 29.612625 
" style="fill:none;stroke:#000000;stroke-linecap:square;stroke-linejoin:miter;stroke-width:0.8;"/>
   </g>
   <g id="text_35">
    <!-- c -->
    <g transform="translate(704.292292 23.612625)scale(0.216 -0.216)">
     <use xlink:href="#DejaVuSans-63"/>
    </g>
   </g>
   <g id="legend_3">
    <g id="patch_19">
     <path d="M 882.819746 123.2745 
L 986.212871 123.2745 
Q 989.812871 123.2745 989.812871 119.6745 
L 989.812871 42.212625 
Q 989.812871 38.612625 986.212871 38.612625 
L 882.819746 38.612625 
Q 879.219746 38.612625 879.219746 42.212625 
L 879.219746 119.6745 
Q 879.219746 123.2745 882.819746 123.2745 
z
" style="fill:#ffffff;opacity:0.8;stroke:#cccccc;stroke-linejoin:miter;"/>
    </g>
    <g id="line2d_58">
     <path d="M 886.419746 53.189812 
L 922.419746 53.189812 
" style="fill:none;stroke:#2ca02c;stroke-linecap:square;stroke-width:1.5;"/>
    </g>
    <g id="line2d_59">
     <g>
      <use style="fill:#2ca02c;stroke:#2ca02c;" x="904.419746" xlink:href="#mc57ad9ed33" y="53.189812"/>
     </g>
    </g>
    <g id="text_36">
     <!-- Train -->
     <g transform="translate(936.819746 59.489812)scale(0.18 -0.18)">
      <use xlink:href="#DejaVuSans-54"/>
      <use x="60.865234" xlink:href="#DejaVuSans-72"/>
      <use x="101.978516" xlink:href="#DejaVuSans-61"/>
      <use x="163.257812" xlink:href="#DejaVuSans-69"/>
      <use x="191.041016" xlink:href="#DejaVuSans-6e"/>
     </g>
    </g>
    <g id="line2d_60">
     <path d="M 886.419746 79.610437 
L 922.419746 79.610437 
" style="fill:none;stroke:#1f77b4;stroke-linecap:square;stroke-width:1.5;"/>
    </g>
    <g id="line2d_61">
     <g>
      <use style="fill:#1f77b4;stroke:#1f77b4;" x="904.419746" xlink:href="#md102d3e02b" y="79.610437"/>
     </g>
    </g>
    <g id="text_37">
     <!-- CV -->
     <g transform="translate(936.819746 85.910437)scale(0.18 -0.18)">
      <use xlink:href="#DejaVuSans-43"/>
      <use x="69.824219" xlink:href="#DejaVuSans-56"/>
     </g>
    </g>
    <g id="line2d_62">
     <path d="M 886.419746 106.031062 
L 922.419746 106.031062 
" style="fill:none;stroke:#ff7f0e;stroke-linecap:square;stroke-width:1.5;"/>
    </g>
    <g id="line2d_63">
     <g>
      <use style="fill:#ff7f0e;stroke:#ff7f0e;" x="904.419746" xlink:href="#m15ccc8b87b" y="106.031062"/>
     </g>
    </g>
    <g id="text_38">
     <!-- Test -->
     <g transform="translate(936.819746 112.331062)scale(0.18 -0.18)">
      <use xlink:href="#DejaVuSans-54"/>
      <use x="60.818359" xlink:href="#DejaVuSans-65"/>
      <use x="122.341797" xlink:href="#DejaVuSans-73"/>
      <use x="174.441406" xlink:href="#DejaVuSans-74"/>
     </g>
    </g>
   </g>
  </g>
 </g>
 <defs>
  <clipPath id="p14b50c8c49">
   <rect height="325" width="294.520579" x="58.525625" y="29.612625"/>
  </clipPath>
  <clipPath id="p912b4fdc92">
   <rect height="325" width="294.520579" x="381.408958" y="29.612625"/>
  </clipPath>
  <clipPath id="p2acd5d4211">
   <rect height="325" width="294.520579" x="704.292292" y="29.612625"/>
  </clipPath>
 </defs>
</svg>
