<?xml version="1.0" encoding="utf-8" standalone="no"?>
<!DOCTYPE svg PUBLIC "-//W3C//DTD SVG 1.1//EN"
  "http://www.w3.org/Graphics/SVG/1.1/DTD/svg11.dtd">
<!-- Created with matplotlib (https://matplotlib.org/) -->
<svg height="321.404516pt" version="1.1" viewBox="0 0 365.860297 321.404516" width="365.860297pt" xmlns="http://www.w3.org/2000/svg" xmlns:xlink="http://www.w3.org/1999/xlink">
 <defs>
  <style type="text/css">
*{stroke-linecap:butt;stroke-linejoin:round;}
  </style>
 </defs>
 <g id="figure_1">
  <g id="patch_1">
   <path d="M 0 321.404516 
L 365.860297 321.404516 
L 365.860297 0 
L 0 0 
z
" style="fill:#ffffff;"/>
  </g>
  <g id="axes_1">
   <g id="patch_2">
    <path d="M 81.430625 268.363266 
L 335.857027 268.363266 
L 335.857027 13.936864 
L 81.430625 13.936864 
z
" style="fill:#ffffff;"/>
   </g>
   <g id="matplotlib.axis_1">
    <g id="xtick_1">
     <g id="line2d_1">
      <defs>
       <path d="M 0 0 
L 0 3.5 
" id="m5ed4857b1e" style="stroke:#000000;stroke-width:0.8;"/>
      </defs>
      <g>
       <use style="stroke:#000000;stroke-width:0.8;" x="81.430625" xlink:href="#m5ed4857b1e" y="268.363266"/>
      </g>
     </g>
     <g id="text_1">
      <!-- 0 -->
      <defs>
       <path d="M 31.78125 66.40625 
Q 24.171875 66.40625 20.328125 58.90625 
Q 16.5 51.421875 16.5 36.375 
Q 16.5 21.390625 20.328125 13.890625 
Q 24.171875 6.390625 31.78125 6.390625 
Q 39.453125 6.390625 43.28125 13.890625 
Q 47.125 21.390625 47.125 36.375 
Q 47.125 51.421875 43.28125 58.90625 
Q 39.453125 66.40625 31.78125 66.40625 
z
M 31.78125 74.21875 
Q 44.046875 74.21875 50.515625 64.515625 
Q 56.984375 54.828125 56.984375 36.375 
Q 56.984375 17.96875 50.515625 8.265625 
Q 44.046875 -1.421875 31.78125 -1.421875 
Q 19.53125 -1.421875 13.0625 8.265625 
Q 6.59375 17.96875 6.59375 36.375 
Q 6.59375 54.828125 13.0625 64.515625 
Q 19.53125 74.21875 31.78125 74.21875 
z
" id="DejaVuSans-48"/>
      </defs>
      <g transform="translate(75.704375 289.040454)scale(0.18 -0.18)">
       <use xlink:href="#DejaVuSans-48"/>
      </g>
     </g>
    </g>
    <g id="xtick_2">
     <g id="line2d_2">
      <g>
       <use style="stroke:#000000;stroke-width:0.8;" x="132.295559" xlink:href="#m5ed4857b1e" y="268.363266"/>
      </g>
     </g>
     <g id="text_2">
      <!-- 500 -->
      <defs>
       <path d="M 10.796875 72.90625 
L 49.515625 72.90625 
L 49.515625 64.59375 
L 19.828125 64.59375 
L 19.828125 46.734375 
Q 21.96875 47.46875 24.109375 47.828125 
Q 26.265625 48.1875 28.421875 48.1875 
Q 40.625 48.1875 47.75 41.5 
Q 54.890625 34.8125 54.890625 23.390625 
Q 54.890625 11.625 47.5625 5.09375 
Q 40.234375 -1.421875 26.90625 -1.421875 
Q 22.3125 -1.421875 17.546875 -0.640625 
Q 12.796875 0.140625 7.71875 1.703125 
L 7.71875 11.625 
Q 12.109375 9.234375 16.796875 8.0625 
Q 21.484375 6.890625 26.703125 6.890625 
Q 35.15625 6.890625 40.078125 11.328125 
Q 45.015625 15.765625 45.015625 23.390625 
Q 45.015625 31 40.078125 35.4375 
Q 35.15625 39.890625 26.703125 39.890625 
Q 22.75 39.890625 18.8125 39.015625 
Q 14.890625 38.140625 10.796875 36.28125 
z
" id="DejaVuSans-53"/>
      </defs>
      <g transform="translate(115.116809 289.040454)scale(0.18 -0.18)">
       <use xlink:href="#DejaVuSans-53"/>
       <use x="63.623047" xlink:href="#DejaVuSans-48"/>
       <use x="127.246094" xlink:href="#DejaVuSans-48"/>
      </g>
     </g>
    </g>
    <g id="xtick_3">
     <g id="line2d_3">
      <g>
       <use style="stroke:#000000;stroke-width:0.8;" x="183.160494" xlink:href="#m5ed4857b1e" y="268.363266"/>
      </g>
     </g>
     <g id="text_3">
      <!-- 1000 -->
      <defs>
       <path d="M 12.40625 8.296875 
L 28.515625 8.296875 
L 28.515625 63.921875 
L 10.984375 60.40625 
L 10.984375 69.390625 
L 28.421875 72.90625 
L 38.28125 72.90625 
L 38.28125 8.296875 
L 54.390625 8.296875 
L 54.390625 0 
L 12.40625 0 
z
" id="DejaVuSans-49"/>
      </defs>
      <g transform="translate(160.255494 289.040454)scale(0.18 -0.18)">
       <use xlink:href="#DejaVuSans-49"/>
       <use x="63.623047" xlink:href="#DejaVuSans-48"/>
       <use x="127.246094" xlink:href="#DejaVuSans-48"/>
       <use x="190.869141" xlink:href="#DejaVuSans-48"/>
      </g>
     </g>
    </g>
    <g id="xtick_4">
     <g id="line2d_4">
      <g>
       <use style="stroke:#000000;stroke-width:0.8;" x="234.025428" xlink:href="#m5ed4857b1e" y="268.363266"/>
      </g>
     </g>
     <g id="text_4">
      <!-- 1500 -->
      <g transform="translate(211.120428 289.040454)scale(0.18 -0.18)">
       <use xlink:href="#DejaVuSans-49"/>
       <use x="63.623047" xlink:href="#DejaVuSans-53"/>
       <use x="127.246094" xlink:href="#DejaVuSans-48"/>
       <use x="190.869141" xlink:href="#DejaVuSans-48"/>
      </g>
     </g>
    </g>
    <g id="xtick_5">
     <g id="line2d_5">
      <g>
       <use style="stroke:#000000;stroke-width:0.8;" x="284.890363" xlink:href="#m5ed4857b1e" y="268.363266"/>
      </g>
     </g>
     <g id="text_5">
      <!-- 2000 -->
      <defs>
       <path d="M 19.1875 8.296875 
L 53.609375 8.296875 
L 53.609375 0 
L 7.328125 0 
L 7.328125 8.296875 
Q 12.9375 14.109375 22.625 23.890625 
Q 32.328125 33.6875 34.8125 36.53125 
Q 39.546875 41.84375 41.421875 45.53125 
Q 43.3125 49.21875 43.3125 52.78125 
Q 43.3125 58.59375 39.234375 62.25 
Q 35.15625 65.921875 28.609375 65.921875 
Q 23.96875 65.921875 18.8125 64.3125 
Q 13.671875 62.703125 7.8125 59.421875 
L 7.8125 69.390625 
Q 13.765625 71.78125 18.9375 73 
Q 24.125 74.21875 28.421875 74.21875 
Q 39.75 74.21875 46.484375 68.546875 
Q 53.21875 62.890625 53.21875 53.421875 
Q 53.21875 48.921875 51.53125 44.890625 
Q 49.859375 40.875 45.40625 35.40625 
Q 44.1875 33.984375 37.640625 27.21875 
Q 31.109375 20.453125 19.1875 8.296875 
z
" id="DejaVuSans-50"/>
      </defs>
      <g transform="translate(261.985363 289.040454)scale(0.18 -0.18)">
       <use xlink:href="#DejaVuSans-50"/>
       <use x="63.623047" xlink:href="#DejaVuSans-48"/>
       <use x="127.246094" xlink:href="#DejaVuSans-48"/>
       <use x="190.869141" xlink:href="#DejaVuSans-48"/>
      </g>
     </g>
    </g>
    <g id="xtick_6">
     <g id="line2d_6">
      <g>
       <use style="stroke:#000000;stroke-width:0.8;" x="335.755297" xlink:href="#m5ed4857b1e" y="268.363266"/>
      </g>
     </g>
     <g id="text_6">
      <!-- 2500 -->
      <g transform="translate(312.850297 289.040454)scale(0.18 -0.18)">
       <use xlink:href="#DejaVuSans-50"/>
       <use x="63.623047" xlink:href="#DejaVuSans-53"/>
       <use x="127.246094" xlink:href="#DejaVuSans-48"/>
       <use x="190.869141" xlink:href="#DejaVuSans-48"/>
      </g>
     </g>
    </g>
    <g id="text_7">
     <!-- Observed cycle life -->
     <defs>
      <path d="M 39.40625 66.21875 
Q 28.65625 66.21875 22.328125 58.203125 
Q 16.015625 50.203125 16.015625 36.375 
Q 16.015625 22.609375 22.328125 14.59375 
Q 28.65625 6.59375 39.40625 6.59375 
Q 50.140625 6.59375 56.421875 14.59375 
Q 62.703125 22.609375 62.703125 36.375 
Q 62.703125 50.203125 56.421875 58.203125 
Q 50.140625 66.21875 39.40625 66.21875 
z
M 39.40625 74.21875 
Q 54.734375 74.21875 63.90625 63.9375 
Q 73.09375 53.65625 73.09375 36.375 
Q 73.09375 19.140625 63.90625 8.859375 
Q 54.734375 -1.421875 39.40625 -1.421875 
Q 24.03125 -1.421875 14.8125 8.828125 
Q 5.609375 19.09375 5.609375 36.375 
Q 5.609375 53.65625 14.8125 63.9375 
Q 24.03125 74.21875 39.40625 74.21875 
z
" id="DejaVuSans-79"/>
      <path d="M 48.6875 27.296875 
Q 48.6875 37.203125 44.609375 42.84375 
Q 40.53125 48.484375 33.40625 48.484375 
Q 26.265625 48.484375 22.1875 42.84375 
Q 18.109375 37.203125 18.109375 27.296875 
Q 18.109375 17.390625 22.1875 11.75 
Q 26.265625 6.109375 33.40625 6.109375 
Q 40.53125 6.109375 44.609375 11.75 
Q 48.6875 17.390625 48.6875 27.296875 
z
M 18.109375 46.390625 
Q 20.953125 51.265625 25.265625 53.625 
Q 29.59375 56 35.59375 56 
Q 45.5625 56 51.78125 48.09375 
Q 58.015625 40.1875 58.015625 27.296875 
Q 58.015625 14.40625 51.78125 6.484375 
Q 45.5625 -1.421875 35.59375 -1.421875 
Q 29.59375 -1.421875 25.265625 0.953125 
Q 20.953125 3.328125 18.109375 8.203125 
L 18.109375 0 
L 9.078125 0 
L 9.078125 75.984375 
L 18.109375 75.984375 
z
" id="DejaVuSans-98"/>
      <path d="M 44.28125 53.078125 
L 44.28125 44.578125 
Q 40.484375 46.53125 36.375 47.5 
Q 32.28125 48.484375 27.875 48.484375 
Q 21.1875 48.484375 17.84375 46.4375 
Q 14.5 44.390625 14.5 40.28125 
Q 14.5 37.15625 16.890625 35.375 
Q 19.28125 33.59375 26.515625 31.984375 
L 29.59375 31.296875 
Q 39.15625 29.25 43.1875 25.515625 
Q 47.21875 21.78125 47.21875 15.09375 
Q 47.21875 7.46875 41.1875 3.015625 
Q 35.15625 -1.421875 24.609375 -1.421875 
Q 20.21875 -1.421875 15.453125 -0.5625 
Q 10.6875 0.296875 5.421875 2 
L 5.421875 11.28125 
Q 10.40625 8.6875 15.234375 7.390625 
Q 20.0625 6.109375 24.8125 6.109375 
Q 31.15625 6.109375 34.5625 8.28125 
Q 37.984375 10.453125 37.984375 14.40625 
Q 37.984375 18.0625 35.515625 20.015625 
Q 33.0625 21.96875 24.703125 23.78125 
L 21.578125 24.515625 
Q 13.234375 26.265625 9.515625 29.90625 
Q 5.8125 33.546875 5.8125 39.890625 
Q 5.8125 47.609375 11.28125 51.796875 
Q 16.75 56 26.8125 56 
Q 31.78125 56 36.171875 55.265625 
Q 40.578125 54.546875 44.28125 53.078125 
z
" id="DejaVuSans-115"/>
      <path d="M 56.203125 29.59375 
L 56.203125 25.203125 
L 14.890625 25.203125 
Q 15.484375 15.921875 20.484375 11.0625 
Q 25.484375 6.203125 34.421875 6.203125 
Q 39.59375 6.203125 44.453125 7.46875 
Q 49.3125 8.734375 54.109375 11.28125 
L 54.109375 2.78125 
Q 49.265625 0.734375 44.1875 -0.34375 
Q 39.109375 -1.421875 33.890625 -1.421875 
Q 20.796875 -1.421875 13.15625 6.1875 
Q 5.515625 13.8125 5.515625 26.8125 
Q 5.515625 40.234375 12.765625 48.109375 
Q 20.015625 56 32.328125 56 
Q 43.359375 56 49.78125 48.890625 
Q 56.203125 41.796875 56.203125 29.59375 
z
M 47.21875 32.234375 
Q 47.125 39.59375 43.09375 43.984375 
Q 39.0625 48.390625 32.421875 48.390625 
Q 24.90625 48.390625 20.390625 44.140625 
Q 15.875 39.890625 15.1875 32.171875 
z
" id="DejaVuSans-101"/>
      <path d="M 41.109375 46.296875 
Q 39.59375 47.171875 37.8125 47.578125 
Q 36.03125 48 33.890625 48 
Q 26.265625 48 22.1875 43.046875 
Q 18.109375 38.09375 18.109375 28.8125 
L 18.109375 0 
L 9.078125 0 
L 9.078125 54.6875 
L 18.109375 54.6875 
L 18.109375 46.1875 
Q 20.953125 51.171875 25.484375 53.578125 
Q 30.03125 56 36.53125 56 
Q 37.453125 56 38.578125 55.875 
Q 39.703125 55.765625 41.0625 55.515625 
z
" id="DejaVuSans-114"/>
      <path d="M 2.984375 54.6875 
L 12.5 54.6875 
L 29.59375 8.796875 
L 46.6875 54.6875 
L 56.203125 54.6875 
L 35.6875 0 
L 23.484375 0 
z
" id="DejaVuSans-118"/>
      <path d="M 45.40625 46.390625 
L 45.40625 75.984375 
L 54.390625 75.984375 
L 54.390625 0 
L 45.40625 0 
L 45.40625 8.203125 
Q 42.578125 3.328125 38.25 0.953125 
Q 33.9375 -1.421875 27.875 -1.421875 
Q 17.96875 -1.421875 11.734375 6.484375 
Q 5.515625 14.40625 5.515625 27.296875 
Q 5.515625 40.1875 11.734375 48.09375 
Q 17.96875 56 27.875 56 
Q 33.9375 56 38.25 53.625 
Q 42.578125 51.265625 45.40625 46.390625 
z
M 14.796875 27.296875 
Q 14.796875 17.390625 18.875 11.75 
Q 22.953125 6.109375 30.078125 6.109375 
Q 37.203125 6.109375 41.296875 11.75 
Q 45.40625 17.390625 45.40625 27.296875 
Q 45.40625 37.203125 41.296875 42.84375 
Q 37.203125 48.484375 30.078125 48.484375 
Q 22.953125 48.484375 18.875 42.84375 
Q 14.796875 37.203125 14.796875 27.296875 
z
" id="DejaVuSans-100"/>
      <path id="DejaVuSans-32"/>
      <path d="M 48.78125 52.59375 
L 48.78125 44.1875 
Q 44.96875 46.296875 41.140625 47.34375 
Q 37.3125 48.390625 33.40625 48.390625 
Q 24.65625 48.390625 19.8125 42.84375 
Q 14.984375 37.3125 14.984375 27.296875 
Q 14.984375 17.28125 19.8125 11.734375 
Q 24.65625 6.203125 33.40625 6.203125 
Q 37.3125 6.203125 41.140625 7.25 
Q 44.96875 8.296875 48.78125 10.40625 
L 48.78125 2.09375 
Q 45.015625 0.34375 40.984375 -0.53125 
Q 36.96875 -1.421875 32.421875 -1.421875 
Q 20.0625 -1.421875 12.78125 6.34375 
Q 5.515625 14.109375 5.515625 27.296875 
Q 5.515625 40.671875 12.859375 48.328125 
Q 20.21875 56 33.015625 56 
Q 37.15625 56 41.109375 55.140625 
Q 45.0625 54.296875 48.78125 52.59375 
z
" id="DejaVuSans-99"/>
      <path d="M 32.171875 -5.078125 
Q 28.375 -14.84375 24.75 -17.8125 
Q 21.140625 -20.796875 15.09375 -20.796875 
L 7.90625 -20.796875 
L 7.90625 -13.28125 
L 13.1875 -13.28125 
Q 16.890625 -13.28125 18.9375 -11.515625 
Q 21 -9.765625 23.484375 -3.21875 
L 25.09375 0.875 
L 2.984375 54.6875 
L 12.5 54.6875 
L 29.59375 11.921875 
L 46.6875 54.6875 
L 56.203125 54.6875 
z
" id="DejaVuSans-121"/>
      <path d="M 9.421875 75.984375 
L 18.40625 75.984375 
L 18.40625 0 
L 9.421875 0 
z
" id="DejaVuSans-108"/>
      <path d="M 9.421875 54.6875 
L 18.40625 54.6875 
L 18.40625 0 
L 9.421875 0 
z
M 9.421875 75.984375 
L 18.40625 75.984375 
L 18.40625 64.59375 
L 9.421875 64.59375 
z
" id="DejaVuSans-105"/>
      <path d="M 37.109375 75.984375 
L 37.109375 68.5 
L 28.515625 68.5 
Q 23.6875 68.5 21.796875 66.546875 
Q 19.921875 64.59375 19.921875 59.515625 
L 19.921875 54.6875 
L 34.71875 54.6875 
L 34.71875 47.703125 
L 19.921875 47.703125 
L 19.921875 0 
L 10.890625 0 
L 10.890625 47.703125 
L 2.296875 47.703125 
L 2.296875 54.6875 
L 10.890625 54.6875 
L 10.890625 58.5 
Q 10.890625 67.625 15.140625 71.796875 
Q 19.390625 75.984375 28.609375 75.984375 
z
" id="DejaVuSans-102"/>
     </defs>
     <g transform="translate(122.651639 310.461079)scale(0.18 -0.18)">
      <use xlink:href="#DejaVuSans-79"/>
      <use x="78.710938" xlink:href="#DejaVuSans-98"/>
      <use x="142.1875" xlink:href="#DejaVuSans-115"/>
      <use x="194.287109" xlink:href="#DejaVuSans-101"/>
      <use x="255.810547" xlink:href="#DejaVuSans-114"/>
      <use x="296.923828" xlink:href="#DejaVuSans-118"/>
      <use x="356.103516" xlink:href="#DejaVuSans-101"/>
      <use x="417.626953" xlink:href="#DejaVuSans-100"/>
      <use x="481.103516" xlink:href="#DejaVuSans-32"/>
      <use x="512.890625" xlink:href="#DejaVuSans-99"/>
      <use x="567.871094" xlink:href="#DejaVuSans-121"/>
      <use x="627.050781" xlink:href="#DejaVuSans-99"/>
      <use x="682.03125" xlink:href="#DejaVuSans-108"/>
      <use x="709.814453" xlink:href="#DejaVuSans-101"/>
      <use x="771.337891" xlink:href="#DejaVuSans-32"/>
      <use x="803.125" xlink:href="#DejaVuSans-108"/>
      <use x="830.908203" xlink:href="#DejaVuSans-105"/>
      <use x="858.691406" xlink:href="#DejaVuSans-102"/>
      <use x="893.896484" xlink:href="#DejaVuSans-101"/>
     </g>
    </g>
   </g>
   <g id="matplotlib.axis_2">
    <g id="ytick_1">
     <g id="line2d_7">
      <defs>
       <path d="M 0 0 
L -3.5 0 
" id="m3a902377bf" style="stroke:#000000;stroke-width:0.8;"/>
      </defs>
      <g>
       <use style="stroke:#000000;stroke-width:0.8;" x="81.430625" xlink:href="#m3a902377bf" y="268.363266"/>
      </g>
     </g>
     <g id="text_8">
      <!-- 0 -->
      <g transform="translate(62.978125 275.20186)scale(0.18 -0.18)">
       <use xlink:href="#DejaVuSans-48"/>
      </g>
     </g>
    </g>
    <g id="ytick_2">
     <g id="line2d_8">
      <g>
       <use style="stroke:#000000;stroke-width:0.8;" x="81.430625" xlink:href="#m3a902377bf" y="217.498332"/>
      </g>
     </g>
     <g id="text_9">
      <!-- 500 -->
      <g transform="translate(40.073125 224.336925)scale(0.18 -0.18)">
       <use xlink:href="#DejaVuSans-53"/>
       <use x="63.623047" xlink:href="#DejaVuSans-48"/>
       <use x="127.246094" xlink:href="#DejaVuSans-48"/>
      </g>
     </g>
    </g>
    <g id="ytick_3">
     <g id="line2d_9">
      <g>
       <use style="stroke:#000000;stroke-width:0.8;" x="81.430625" xlink:href="#m3a902377bf" y="166.633397"/>
      </g>
     </g>
     <g id="text_10">
      <!-- 1000 -->
      <g transform="translate(28.620625 173.471991)scale(0.18 -0.18)">
       <use xlink:href="#DejaVuSans-49"/>
       <use x="63.623047" xlink:href="#DejaVuSans-48"/>
       <use x="127.246094" xlink:href="#DejaVuSans-48"/>
       <use x="190.869141" xlink:href="#DejaVuSans-48"/>
      </g>
     </g>
    </g>
    <g id="ytick_4">
     <g id="line2d_10">
      <g>
       <use style="stroke:#000000;stroke-width:0.8;" x="81.430625" xlink:href="#m3a902377bf" y="115.768463"/>
      </g>
     </g>
     <g id="text_11">
      <!-- 1500 -->
      <g transform="translate(28.620625 122.607056)scale(0.18 -0.18)">
       <use xlink:href="#DejaVuSans-49"/>
       <use x="63.623047" xlink:href="#DejaVuSans-53"/>
       <use x="127.246094" xlink:href="#DejaVuSans-48"/>
       <use x="190.869141" xlink:href="#DejaVuSans-48"/>
      </g>
     </g>
    </g>
    <g id="ytick_5">
     <g id="line2d_11">
      <g>
       <use style="stroke:#000000;stroke-width:0.8;" x="81.430625" xlink:href="#m3a902377bf" y="64.903528"/>
      </g>
     </g>
     <g id="text_12">
      <!-- 2000 -->
      <g transform="translate(28.620625 71.742122)scale(0.18 -0.18)">
       <use xlink:href="#DejaVuSans-50"/>
       <use x="63.623047" xlink:href="#DejaVuSans-48"/>
       <use x="127.246094" xlink:href="#DejaVuSans-48"/>
       <use x="190.869141" xlink:href="#DejaVuSans-48"/>
      </g>
     </g>
    </g>
    <g id="ytick_6">
     <g id="line2d_12">
      <g>
       <use style="stroke:#000000;stroke-width:0.8;" x="81.430625" xlink:href="#m3a902377bf" y="14.038594"/>
      </g>
     </g>
     <g id="text_13">
      <!-- 2500 -->
      <g transform="translate(28.620625 20.877187)scale(0.18 -0.18)">
       <use xlink:href="#DejaVuSans-50"/>
       <use x="63.623047" xlink:href="#DejaVuSans-53"/>
       <use x="127.246094" xlink:href="#DejaVuSans-48"/>
       <use x="190.869141" xlink:href="#DejaVuSans-48"/>
      </g>
     </g>
    </g>
    <g id="text_14">
     <!-- Predicted cycle life -->
     <defs>
      <path d="M 19.671875 64.796875 
L 19.671875 37.40625 
L 32.078125 37.40625 
Q 38.96875 37.40625 42.71875 40.96875 
Q 46.484375 44.53125 46.484375 51.125 
Q 46.484375 57.671875 42.71875 61.234375 
Q 38.96875 64.796875 32.078125 64.796875 
z
M 9.8125 72.90625 
L 32.078125 72.90625 
Q 44.34375 72.90625 50.609375 67.359375 
Q 56.890625 61.8125 56.890625 51.125 
Q 56.890625 40.328125 50.609375 34.8125 
Q 44.34375 29.296875 32.078125 29.296875 
L 19.671875 29.296875 
L 19.671875 0 
L 9.8125 0 
z
" id="DejaVuSans-80"/>
      <path d="M 18.3125 70.21875 
L 18.3125 54.6875 
L 36.8125 54.6875 
L 36.8125 47.703125 
L 18.3125 47.703125 
L 18.3125 18.015625 
Q 18.3125 11.328125 20.140625 9.421875 
Q 21.96875 7.515625 27.59375 7.515625 
L 36.8125 7.515625 
L 36.8125 0 
L 27.59375 0 
Q 17.1875 0 13.234375 3.875 
Q 9.28125 7.765625 9.28125 18.015625 
L 9.28125 47.703125 
L 2.6875 47.703125 
L 2.6875 54.6875 
L 9.28125 54.6875 
L 9.28125 70.21875 
z
" id="DejaVuSans-116"/>
     </defs>
     <g transform="translate(20.877187 226.44194)rotate(-90)scale(0.18 -0.18)">
      <use xlink:href="#DejaVuSans-80"/>
      <use x="60.287109" xlink:href="#DejaVuSans-114"/>
      <use x="101.369141" xlink:href="#DejaVuSans-101"/>
      <use x="162.892578" xlink:href="#DejaVuSans-100"/>
      <use x="226.369141" xlink:href="#DejaVuSans-105"/>
      <use x="254.152344" xlink:href="#DejaVuSans-99"/>
      <use x="309.132812" xlink:href="#DejaVuSans-116"/>
      <use x="348.341797" xlink:href="#DejaVuSans-101"/>
      <use x="409.865234" xlink:href="#DejaVuSans-100"/>
      <use x="473.341797" xlink:href="#DejaVuSans-32"/>
      <use x="505.128906" xlink:href="#DejaVuSans-99"/>
      <use x="560.109375" xlink:href="#DejaVuSans-121"/>
      <use x="619.289062" xlink:href="#DejaVuSans-99"/>
      <use x="674.269531" xlink:href="#DejaVuSans-108"/>
      <use x="702.052734" xlink:href="#DejaVuSans-101"/>
      <use x="763.576172" xlink:href="#DejaVuSans-32"/>
      <use x="795.363281" xlink:href="#DejaVuSans-108"/>
      <use x="823.146484" xlink:href="#DejaVuSans-105"/>
      <use x="850.929688" xlink:href="#DejaVuSans-102"/>
      <use x="886.134766" xlink:href="#DejaVuSans-101"/>
     </g>
    </g>
   </g>
   <g id="line2d_13">
    <defs>
     <path d="M -3 3 
L 3 3 
L 3 -3 
L -3 -3 
z
" id="mb7ae235d7b" style="stroke:#ff0000;stroke-linejoin:miter;"/>
    </defs>
    <g clip-path="url(#pf7e7604582)">
     <use style="fill:#ff0000;stroke:#ff0000;stroke-linejoin:miter;" x="269.834342" xlink:href="#mb7ae235d7b" y="74.902964"/>
     <use style="fill:#ff0000;stroke:#ff0000;stroke-linejoin:miter;" x="301.167142" xlink:href="#mb7ae235d7b" y="58.815301"/>
     <use style="fill:#ff0000;stroke:#ff0000;stroke-linejoin:miter;" x="309.000342" xlink:href="#mb7ae235d7b" y="56.182125"/>
     <use style="fill:#ff0000;stroke:#ff0000;stroke-linejoin:miter;" x="227.311257" xlink:href="#mb7ae235d7b" y="120.185167"/>
     <use style="fill:#ff0000;stroke:#ff0000;stroke-linejoin:miter;" x="255.286971" xlink:href="#mb7ae235d7b" y="95.196649"/>
     <use style="fill:#ff0000;stroke:#ff0000;stroke-linejoin:miter;" x="190.688504" xlink:href="#mb7ae235d7b" y="165.150481"/>
     <use style="fill:#ff0000;stroke:#ff0000;stroke-linejoin:miter;" x="146.130822" xlink:href="#mb7ae235d7b" y="198.07047"/>
     <use style="fill:#ff0000;stroke:#ff0000;stroke-linejoin:miter;" x="169.935611" xlink:href="#mb7ae235d7b" y="180.168861"/>
     <use style="fill:#ff0000;stroke:#ff0000;stroke-linejoin:miter;" x="188.653907" xlink:href="#mb7ae235d7b" y="166.25659"/>
     <use style="fill:#ff0000;stroke:#ff0000;stroke-linejoin:miter;" x="161.593762" xlink:href="#mb7ae235d7b" y="181.169069"/>
     <use style="fill:#ff0000;stroke:#ff0000;stroke-linejoin:miter;" x="170.95291" xlink:href="#mb7ae235d7b" y="178.381366"/>
     <use style="fill:#ff0000;stroke:#ff0000;stroke-linejoin:miter;" x="154.574401" xlink:href="#mb7ae235d7b" y="190.89648"/>
     <use style="fill:#ff0000;stroke:#ff0000;stroke-linejoin:miter;" x="169.121772" xlink:href="#mb7ae235d7b" y="176.576169"/>
     <use style="fill:#ff0000;stroke:#ff0000;stroke-linejoin:miter;" x="168.613123" xlink:href="#mb7ae235d7b" y="182.110986"/>
     <use style="fill:#ff0000;stroke:#ff0000;stroke-linejoin:miter;" x="151.725964" xlink:href="#mb7ae235d7b" y="200.693371"/>
     <use style="fill:#ff0000;stroke:#ff0000;stroke-linejoin:miter;" x="161.593762" xlink:href="#mb7ae235d7b" y="193.254883"/>
     <use style="fill:#ff0000;stroke:#ff0000;stroke-linejoin:miter;" x="135.754375" xlink:href="#mb7ae235d7b" y="215.265463"/>
     <use style="fill:#ff0000;stroke:#ff0000;stroke-linejoin:miter;" x="138.297622" xlink:href="#mb7ae235d7b" y="212.641646"/>
     <use style="fill:#ff0000;stroke:#ff0000;stroke-linejoin:miter;" x="184.584712" xlink:href="#mb7ae235d7b" y="168.152733"/>
     <use style="fill:#ff0000;stroke:#ff0000;stroke-linejoin:miter;" x="184.889902" xlink:href="#mb7ae235d7b" y="170.029242"/>
     <use style="fill:#ff0000;stroke:#ff0000;stroke-linejoin:miter;" x="168.307933" xlink:href="#mb7ae235d7b" y="176.66559"/>
     <use style="fill:#ff0000;stroke:#ff0000;stroke-linejoin:miter;" x="169.935611" xlink:href="#mb7ae235d7b" y="181.239975"/>
     <use style="fill:#ff0000;stroke:#ff0000;stroke-linejoin:miter;" x="167.087175" xlink:href="#mb7ae235d7b" y="182.46582"/>
     <use style="fill:#ff0000;stroke:#ff0000;stroke-linejoin:miter;" x="168.918312" xlink:href="#mb7ae235d7b" y="181.213119"/>
     <use style="fill:#ff0000;stroke:#ff0000;stroke-linejoin:miter;" x="174.716915" xlink:href="#mb7ae235d7b" y="177.629887"/>
     <use style="fill:#ff0000;stroke:#ff0000;stroke-linejoin:miter;" x="153.557102" xlink:href="#mb7ae235d7b" y="194.867403"/>
     <use style="fill:#ff0000;stroke:#ff0000;stroke-linejoin:miter;" x="170.54599" xlink:href="#mb7ae235d7b" y="183.821778"/>
     <use style="fill:#ff0000;stroke:#ff0000;stroke-linejoin:miter;" x="155.795159" xlink:href="#mb7ae235d7b" y="196.603627"/>
     <use style="fill:#ff0000;stroke:#ff0000;stroke-linejoin:miter;" x="158.440136" xlink:href="#mb7ae235d7b" y="196.967515"/>
     <use style="fill:#ff0000;stroke:#ff0000;stroke-linejoin:miter;" x="156.914188" xlink:href="#mb7ae235d7b" y="189.968601"/>
     <use style="fill:#ff0000;stroke:#ff0000;stroke-linejoin:miter;" x="152.946723" xlink:href="#mb7ae235d7b" y="195.554385"/>
     <use style="fill:#ff0000;stroke:#ff0000;stroke-linejoin:miter;" x="153.048453" xlink:href="#mb7ae235d7b" y="197.657548"/>
     <use style="fill:#ff0000;stroke:#ff0000;stroke-linejoin:miter;" x="147.35158" xlink:href="#mb7ae235d7b" y="200.608528"/>
     <use style="fill:#ff0000;stroke:#ff0000;stroke-linejoin:miter;" x="144.197954" xlink:href="#mb7ae235d7b" y="209.975916"/>
     <use style="fill:#ff0000;stroke:#ff0000;stroke-linejoin:miter;" x="145.011793" xlink:href="#mb7ae235d7b" y="206.914763"/>
     <use style="fill:#ff0000;stroke:#ff0000;stroke-linejoin:miter;" x="179.701678" xlink:href="#mb7ae235d7b" y="170.066475"/>
     <use style="fill:#ff0000;stroke:#ff0000;stroke-linejoin:miter;" x="188.348717" xlink:href="#mb7ae235d7b" y="164.44824"/>
     <use style="fill:#ff0000;stroke:#ff0000;stroke-linejoin:miter;" x="152.844993" xlink:href="#mb7ae235d7b" y="198.24575"/>
     <use style="fill:#ff0000;stroke:#ff0000;stroke-linejoin:miter;" x="147.65677" xlink:href="#mb7ae235d7b" y="202.89979"/>
     <use style="fill:#ff0000;stroke:#ff0000;stroke-linejoin:miter;" x="144.096224" xlink:href="#mb7ae235d7b" y="207.509171"/>
     <use style="fill:#ff0000;stroke:#ff0000;stroke-linejoin:miter;" x="142.366816" xlink:href="#mb7ae235d7b" y="208.456581"/>
     <use style="fill:#ff0000;stroke:#ff0000;stroke-linejoin:miter;" x="111.949586" xlink:href="#mb7ae235d7b" y="235.526085"/>
     <use style="fill:#ff0000;stroke:#ff0000;stroke-linejoin:miter;" x="96.486646" xlink:href="#mb7ae235d7b" y="236.228123"/>
     <use style="fill:#ff0000;stroke:#ff0000;stroke-linejoin:miter;" x="125.988308" xlink:href="#mb7ae235d7b" y="221.483803"/>
     <use style="fill:#ff0000;stroke:#ff0000;stroke-linejoin:miter;" x="115.510131" xlink:href="#mb7ae235d7b" y="233.956088"/>
     <use style="fill:#ff0000;stroke:#ff0000;stroke-linejoin:miter;" x="126.598687" xlink:href="#mb7ae235d7b" y="221.106487"/>
     <use style="fill:#ff0000;stroke:#ff0000;stroke-linejoin:miter;" x="130.260962" xlink:href="#mb7ae235d7b" y="218.997728"/>
     <use style="fill:#ff0000;stroke:#ff0000;stroke-linejoin:miter;" x="133.414588" xlink:href="#mb7ae235d7b" y="218.137399"/>
     <use style="fill:#ff0000;stroke:#ff0000;stroke-linejoin:miter;" x="138.501081" xlink:href="#mb7ae235d7b" y="214.246435"/>
     <use style="fill:#ff0000;stroke:#ff0000;stroke-linejoin:miter;" x="129.955772" xlink:href="#mb7ae235d7b" y="219.73059"/>
     <use style="fill:#ff0000;stroke:#ff0000;stroke-linejoin:miter;" x="128.022905" xlink:href="#mb7ae235d7b" y="220.086136"/>
     <use style="fill:#ff0000;stroke:#ff0000;stroke-linejoin:miter;" x="130.566152" xlink:href="#mb7ae235d7b" y="218.06456"/>
     <use style="fill:#ff0000;stroke:#ff0000;stroke-linejoin:miter;" x="130.769611" xlink:href="#mb7ae235d7b" y="218.547268"/>
     <use style="fill:#ff0000;stroke:#ff0000;stroke-linejoin:miter;" x="131.68518" xlink:href="#mb7ae235d7b" y="216.690291"/>
     <use style="fill:#ff0000;stroke:#ff0000;stroke-linejoin:miter;" x="130.973071" xlink:href="#mb7ae235d7b" y="218.790403"/>
     <use style="fill:#ff0000;stroke:#ff0000;stroke-linejoin:miter;" x="128.328095" xlink:href="#mb7ae235d7b" y="220.67383"/>
     <use style="fill:#ff0000;stroke:#ff0000;stroke-linejoin:miter;" x="132.499019" xlink:href="#mb7ae235d7b" y="215.71694"/>
     <use style="fill:#ff0000;stroke:#ff0000;stroke-linejoin:miter;" x="131.176531" xlink:href="#mb7ae235d7b" y="218.752966"/>
     <use style="fill:#ff0000;stroke:#ff0000;stroke-linejoin:miter;" x="133.618048" xlink:href="#mb7ae235d7b" y="216.97188"/>
     <use style="fill:#ff0000;stroke:#ff0000;stroke-linejoin:miter;" x="135.042266" xlink:href="#mb7ae235d7b" y="215.427824"/>
     <use style="fill:#ff0000;stroke:#ff0000;stroke-linejoin:miter;" x="131.78691" xlink:href="#mb7ae235d7b" y="217.269134"/>
     <use style="fill:#ff0000;stroke:#ff0000;stroke-linejoin:miter;" x="128.328095" xlink:href="#mb7ae235d7b" y="220.680544"/>
     <use style="fill:#ff0000;stroke:#ff0000;stroke-linejoin:miter;" x="129.345393" xlink:href="#mb7ae235d7b" y="219.642085"/>
     <use style="fill:#ff0000;stroke:#ff0000;stroke-linejoin:miter;" x="129.040204" xlink:href="#mb7ae235d7b" y="219.720926"/>
     <use style="fill:#ff0000;stroke:#ff0000;stroke-linejoin:miter;" x="133.211128" xlink:href="#mb7ae235d7b" y="213.051007"/>
     <use style="fill:#ff0000;stroke:#ff0000;stroke-linejoin:miter;" x="132.0921" xlink:href="#mb7ae235d7b" y="214.508999"/>
     <use style="fill:#ff0000;stroke:#ff0000;stroke-linejoin:miter;" x="130.362692" xlink:href="#mb7ae235d7b" y="218.533535"/>
     <use style="fill:#ff0000;stroke:#ff0000;stroke-linejoin:miter;" x="131.481721" xlink:href="#mb7ae235d7b" y="215.211546"/>
     <use style="fill:#ff0000;stroke:#ff0000;stroke-linejoin:miter;" x="134.228427" xlink:href="#mb7ae235d7b" y="215.120701"/>
     <use style="fill:#ff0000;stroke:#ff0000;stroke-linejoin:miter;" x="134.330157" xlink:href="#mb7ae235d7b" y="215.332706"/>
     <use style="fill:#ff0000;stroke:#ff0000;stroke-linejoin:miter;" x="132.19383" xlink:href="#mb7ae235d7b" y="215.65285"/>
     <use style="fill:#ff0000;stroke:#ff0000;stroke-linejoin:miter;" x="128.531554" xlink:href="#mb7ae235d7b" y="220.5427"/>
     <use style="fill:#ff0000;stroke:#ff0000;stroke-linejoin:miter;" x="135.856105" xlink:href="#mb7ae235d7b" y="214.939724"/>
     <use style="fill:#ff0000;stroke:#ff0000;stroke-linejoin:miter;" x="130.057502" xlink:href="#mb7ae235d7b" y="219.712075"/>
     <use style="fill:#ff0000;stroke:#ff0000;stroke-linejoin:miter;" x="128.735014" xlink:href="#mb7ae235d7b" y="219.63181"/>
     <use style="fill:#ff0000;stroke:#ff0000;stroke-linejoin:miter;" x="128.124635" xlink:href="#mb7ae235d7b" y="220.245547"/>
     <use style="fill:#ff0000;stroke:#ff0000;stroke-linejoin:miter;" x="132.19383" xlink:href="#mb7ae235d7b" y="217.791721"/>
     <use style="fill:#ff0000;stroke:#ff0000;stroke-linejoin:miter;" x="125.072739" xlink:href="#mb7ae235d7b" y="221.551453"/>
     <use style="fill:#ff0000;stroke:#ff0000;stroke-linejoin:miter;" x="128.836744" xlink:href="#mb7ae235d7b" y="219.824792"/>
     <use style="fill:#ff0000;stroke:#ff0000;stroke-linejoin:miter;" x="128.429824" xlink:href="#mb7ae235d7b" y="221.433243"/>
     <use style="fill:#ff0000;stroke:#ff0000;stroke-linejoin:miter;" x="127.921175" xlink:href="#mb7ae235d7b" y="221.399876"/>
     <use style="fill:#ff0000;stroke:#ff0000;stroke-linejoin:miter;" x="130.973071" xlink:href="#mb7ae235d7b" y="217.960694"/>
     <use style="fill:#ff0000;stroke:#ff0000;stroke-linejoin:miter;" x="125.072739" xlink:href="#mb7ae235d7b" y="223.030911"/>
     <use style="fill:#ff0000;stroke:#ff0000;stroke-linejoin:miter;" x="153.964022" xlink:href="#mb7ae235d7b" y="191.937888"/>
    </g>
   </g>
   <g id="line2d_14">
    <defs>
     <path d="M 0 3 
C 0.795609 3 1.55874 2.683901 2.12132 2.12132 
C 2.683901 1.55874 3 0.795609 3 0 
C 3 -0.795609 2.683901 -1.55874 2.12132 -2.12132 
C 1.55874 -2.683901 0.795609 -3 0 -3 
C -0.795609 -3 -1.55874 -2.683901 -2.12132 -2.12132 
C -2.683901 -1.55874 -3 -0.795609 -3 0 
C -3 0.795609 -2.683901 1.55874 -2.12132 2.12132 
C -1.55874 2.683901 -0.795609 3 0 3 
z
" id="m0d1fce1f28" style="stroke:#0000ff;"/>
    </defs>
    <g clip-path="url(#pf7e7604582)">
     <use style="fill:#0000ff;stroke:#0000ff;" x="184.076063" xlink:href="#m0d1fce1f28" y="178.186858"/>
     <use style="fill:#0000ff;stroke:#0000ff;" x="189.569476" xlink:href="#m0d1fce1f28" y="180.511691"/>
     <use style="fill:#0000ff;stroke:#0000ff;" x="194.859429" xlink:href="#m0d1fce1f28" y="181.659306"/>
     <use style="fill:#0000ff;stroke:#0000ff;" x="188.043528" xlink:href="#m0d1fce1f28" y="175.799869"/>
     <use style="fill:#0000ff;stroke:#0000ff;" x="165.662956" xlink:href="#m0d1fce1f28" y="184.270305"/>
     <use style="fill:#0000ff;stroke:#0000ff;" x="149.284448" xlink:href="#m0d1fce1f28" y="215.707886"/>
     <use style="fill:#0000ff;stroke:#0000ff;" x="268.206664" xlink:href="#m0d1fce1f28" y="122.530651"/>
     <use style="fill:#0000ff;stroke:#0000ff;" x="165.662956" xlink:href="#m0d1fce1f28" y="183.005192"/>
     <use style="fill:#0000ff;stroke:#0000ff;" x="187.127959" xlink:href="#m0d1fce1f28" y="180.413013"/>
     <use style="fill:#0000ff;stroke:#0000ff;" x="191.095424" xlink:href="#m0d1fce1f28" y="141.875297"/>
     <use style="fill:#0000ff;stroke:#0000ff;" x="164.543928" xlink:href="#m0d1fce1f28" y="183.613943"/>
     <use style="fill:#0000ff;stroke:#0000ff;" x="176.242863" xlink:href="#m0d1fce1f28" y="181.803966"/>
     <use style="fill:#0000ff;stroke:#0000ff;" x="164.442198" xlink:href="#m0d1fce1f28" y="183.680068"/>
     <use style="fill:#0000ff;stroke:#0000ff;" x="168.714853" xlink:href="#m0d1fce1f28" y="180.911693"/>
     <use style="fill:#0000ff;stroke:#0000ff;" x="170.54599" xlink:href="#m0d1fce1f28" y="183.643649"/>
     <use style="fill:#0000ff;stroke:#0000ff;" x="248.06415" xlink:href="#m0d1fce1f28" y="99.430747"/>
     <use style="fill:#0000ff;stroke:#0000ff;" x="215.205403" xlink:href="#m0d1fce1f28" y="149.29171"/>
     <use style="fill:#0000ff;stroke:#0000ff;" x="198.013055" xlink:href="#m0d1fce1f28" y="178.689709"/>
     <use style="fill:#0000ff;stroke:#0000ff;" x="198.928624" xlink:href="#m0d1fce1f28" y="178.523991"/>
     <use style="fill:#0000ff;stroke:#0000ff;" x="164.137008" xlink:href="#m0d1fce1f28" y="181.424005"/>
     <use style="fill:#0000ff;stroke:#0000ff;" x="159.966084" xlink:href="#m0d1fce1f28" y="204.349034"/>
     <use style="fill:#0000ff;stroke:#0000ff;" x="183.363954" xlink:href="#m0d1fce1f28" y="184.364812"/>
     <use style="fill:#0000ff;stroke:#0000ff;" x="165.357767" xlink:href="#m0d1fce1f28" y="183.599701"/>
     <use style="fill:#0000ff;stroke:#0000ff;" x="182.041465" xlink:href="#m0d1fce1f28" y="182.237945"/>
     <use style="fill:#0000ff;stroke:#0000ff;" x="186.00893" xlink:href="#m0d1fce1f28" y="178.555019"/>
     <use style="fill:#0000ff;stroke:#0000ff;" x="167.901014" xlink:href="#m0d1fce1f28" y="183.664401"/>
     <use style="fill:#0000ff;stroke:#0000ff;" x="136.466484" xlink:href="#m0d1fce1f28" y="217.524578"/>
     <use style="fill:#0000ff;stroke:#0000ff;" x="168.714853" xlink:href="#m0d1fce1f28" y="180.326746"/>
     <use style="fill:#0000ff;stroke:#0000ff;" x="176.548052" xlink:href="#m0d1fce1f28" y="177.790926"/>
     <use style="fill:#0000ff;stroke:#0000ff;" x="155.795159" xlink:href="#m0d1fce1f28" y="188.145297"/>
     <use style="fill:#0000ff;stroke:#0000ff;" x="212.051777" xlink:href="#m0d1fce1f28" y="149.567703"/>
     <use style="fill:#0000ff;stroke:#0000ff;" x="199.233813" xlink:href="#m0d1fce1f28" y="177.880651"/>
     <use style="fill:#0000ff;stroke:#0000ff;" x="192.621372" xlink:href="#m0d1fce1f28" y="181.601116"/>
     <use style="fill:#0000ff;stroke:#0000ff;" x="175.327294" xlink:href="#m0d1fce1f28" y="179.996633"/>
     <use style="fill:#0000ff;stroke:#0000ff;" x="278.277921" xlink:href="#m0d1fce1f28" y="166.742248"/>
     <use style="fill:#0000ff;stroke:#0000ff;" x="199.030354" xlink:href="#m0d1fce1f28" y="134.082382"/>
     <use style="fill:#0000ff;stroke:#0000ff;" x="162.407601" xlink:href="#m0d1fce1f28" y="167.396473"/>
     <use style="fill:#0000ff;stroke:#0000ff;" x="161.390302" xlink:href="#m0d1fce1f28" y="185.045486"/>
     <use style="fill:#0000ff;stroke:#0000ff;" x="177.056702" xlink:href="#m0d1fce1f28" y="180.080356"/>
     <use style="fill:#0000ff;stroke:#0000ff;" x="264.646119" xlink:href="#m0d1fce1f28" y="117.193698"/>
    </g>
   </g>
   <g id="line2d_15">
    <path clip-path="url(#pf7e7604582)" d="M 81.430625 268.363266 
L 325.58231 24.211581 
" style="fill:none;stroke:#000000;stroke-dasharray:5.55,2.4;stroke-dashoffset:0;stroke-width:1.5;"/>
   </g>
   <g id="patch_3">
    <path d="M 81.430625 268.363266 
L 81.430625 13.936864 
" style="fill:none;stroke:#000000;stroke-linecap:square;stroke-linejoin:miter;stroke-width:0.8;"/>
   </g>
   <g id="patch_4">
    <path d="M 335.857027 268.363266 
L 335.857027 13.936864 
" style="fill:none;stroke:#000000;stroke-linecap:square;stroke-linejoin:miter;stroke-width:0.8;"/>
   </g>
   <g id="patch_5">
    <path d="M 81.430625 268.363266 
L 335.857027 268.363266 
" style="fill:none;stroke:#000000;stroke-linecap:square;stroke-linejoin:miter;stroke-width:0.8;"/>
   </g>
   <g id="patch_6">
    <path d="M 81.430625 13.936864 
L 335.857027 13.936864 
" style="fill:none;stroke:#000000;stroke-linecap:square;stroke-linejoin:miter;stroke-width:0.8;"/>
   </g>
   <g id="legend_1">
    <g id="patch_7">
     <path d="M 94.030625 81.178114 
L 197.42375 81.178114 
Q 201.02375 81.178114 201.02375 77.578114 
L 201.02375 26.536864 
Q 201.02375 22.936864 197.42375 22.936864 
L 94.030625 22.936864 
Q 90.430625 22.936864 90.430625 26.536864 
L 90.430625 77.578114 
Q 90.430625 81.178114 94.030625 81.178114 
z
" style="fill:#ffffff;opacity:0.8;stroke:#cccccc;stroke-linejoin:miter;"/>
    </g>
    <g id="line2d_16"/>
    <g id="line2d_17">
     <g>
      <use style="fill:#ff0000;stroke:#ff0000;stroke-linejoin:miter;" x="115.630625" xlink:href="#mb7ae235d7b" y="37.514051"/>
     </g>
    </g>
    <g id="text_15">
     <!-- Train -->
     <defs>
      <path d="M -0.296875 72.90625 
L 61.375 72.90625 
L 61.375 64.59375 
L 35.5 64.59375 
L 35.5 0 
L 25.59375 0 
L 25.59375 64.59375 
L -0.296875 64.59375 
z
" id="DejaVuSans-84"/>
      <path d="M 34.28125 27.484375 
Q 23.390625 27.484375 19.1875 25 
Q 14.984375 22.515625 14.984375 16.5 
Q 14.984375 11.71875 18.140625 8.90625 
Q 21.296875 6.109375 26.703125 6.109375 
Q 34.1875 6.109375 38.703125 11.40625 
Q 43.21875 16.703125 43.21875 25.484375 
L 43.21875 27.484375 
z
M 52.203125 31.203125 
L 52.203125 0 
L 43.21875 0 
L 43.21875 8.296875 
Q 40.140625 3.328125 35.546875 0.953125 
Q 30.953125 -1.421875 24.3125 -1.421875 
Q 15.921875 -1.421875 10.953125 3.296875 
Q 6 8.015625 6 15.921875 
Q 6 25.140625 12.171875 29.828125 
Q 18.359375 34.515625 30.609375 34.515625 
L 43.21875 34.515625 
L 43.21875 35.40625 
Q 43.21875 41.609375 39.140625 45 
Q 35.0625 48.390625 27.6875 48.390625 
Q 23 48.390625 18.546875 47.265625 
Q 14.109375 46.140625 10.015625 43.890625 
L 10.015625 52.203125 
Q 14.9375 54.109375 19.578125 55.046875 
Q 24.21875 56 28.609375 56 
Q 40.484375 56 46.34375 49.84375 
Q 52.203125 43.703125 52.203125 31.203125 
z
" id="DejaVuSans-97"/>
      <path d="M 54.890625 33.015625 
L 54.890625 0 
L 45.90625 0 
L 45.90625 32.71875 
Q 45.90625 40.484375 42.875 44.328125 
Q 39.84375 48.1875 33.796875 48.1875 
Q 26.515625 48.1875 22.3125 43.546875 
Q 18.109375 38.921875 18.109375 30.90625 
L 18.109375 0 
L 9.078125 0 
L 9.078125 54.6875 
L 18.109375 54.6875 
L 18.109375 46.1875 
Q 21.34375 51.125 25.703125 53.5625 
Q 30.078125 56 35.796875 56 
Q 45.21875 56 50.046875 50.171875 
Q 54.890625 44.34375 54.890625 33.015625 
z
" id="DejaVuSans-110"/>
     </defs>
     <g transform="translate(148.030625 43.814051)scale(0.18 -0.18)">
      <use xlink:href="#DejaVuSans-84"/>
      <use x="60.865234" xlink:href="#DejaVuSans-114"/>
      <use x="101.978516" xlink:href="#DejaVuSans-97"/>
      <use x="163.257812" xlink:href="#DejaVuSans-105"/>
      <use x="191.041016" xlink:href="#DejaVuSans-110"/>
     </g>
    </g>
    <g id="line2d_18"/>
    <g id="line2d_19">
     <g>
      <use style="fill:#0000ff;stroke:#0000ff;" x="115.630625" xlink:href="#m0d1fce1f28" y="63.934676"/>
     </g>
    </g>
    <g id="text_16">
     <!-- Test -->
     <g transform="translate(148.030625 70.234676)scale(0.18 -0.18)">
      <use xlink:href="#DejaVuSans-84"/>
      <use x="60.818359" xlink:href="#DejaVuSans-101"/>
      <use x="122.341797" xlink:href="#DejaVuSans-115"/>
      <use x="174.441406" xlink:href="#DejaVuSans-116"/>
     </g>
    </g>
   </g>
  </g>
 </g>
 <defs>
  <clipPath id="pf7e7604582">
   <rect height="254.426402" width="254.426402" x="81.430625" y="13.936864"/>
  </clipPath>
 </defs>
</svg>
